<svg width="32" height="32" fill="none" xmlns="http://www.w3.org/2000/svg"><path d="M0 15.36C0 8.11923 0 4.49884 2.24942 2.24942 4.49884 0 8.11923 0 15.36 0h1.28c7.2408 0 10.8612 0 13.1106 2.24942C32 4.49884 32 8.11923 32 15.36v1.28c0 7.2408 0 10.8612-2.2494 13.1106C27.5012 32 23.8808 32 16.64 32h-1.28c-7.24077 0-10.86116 0-13.11058-2.2494C0 27.5012 0 23.8808 0 16.64v-1.28Z" fill="#07F"/><path d="M17.092 23.3333C9.87204 23.3333 5.49164 18.324 5.32001 10h3.65674c.11399 6.1146 2.89595 8.7057 5.02845 9.2386V10h3.5044v5.277c2.057-.228 4.21-2.6283 4.9337-5.277h3.4492c-.552 3.2571-2.8959 5.6574-4.552 6.6475 1.6574.8005 4.324 2.8959 5.3525 6.6858h-3.7912c-.8005-2.5334-2.7614-4.4956-5.391-4.7621v4.7621h-.4188Z" fill="#fff"/></svg>