<svg width="185" height="67" viewBox="0 0 185 67" fill="none" xmlns="http://www.w3.org/2000/svg">
<g clip-path="url(#clip0_20_856)">
<path opacity="0.975" fill-rule="evenodd" clip-rule="evenodd" d="M75.0998 -0.0749512C78.5647 -0.0749512 82.0297 -0.0749512 85.4947 -0.0749512C60.0201 16.8212 34.5099 33.6836 8.96376 50.5123C5.95116 50.5872 2.93813 50.6123 -0.075325 50.5872C-0.075325 44.5418 -0.075325 38.4962 -0.075325 32.4508C1.67808 31.3782 3.43567 30.3041 5.19748 29.2282C5.4272 29.0769 5.6783 29.002 5.95073 29.0033C5.92562 34.2996 5.95073 39.5956 6.02606 44.8915C28.6116 30.1461 51.1841 15.3821 73.7439 0.599545C74.1901 0.322245 74.6421 0.0974132 75.0998 -0.0749512Z" fill="#21B6DE"/>
<path opacity="0.977" fill-rule="evenodd" clip-rule="evenodd" d="M184.925 13.8646C184.925 27.1548 184.925 40.4447 184.925 53.7349C174.763 49.1922 164.644 44.5457 154.568 39.7953C149.07 43.3676 143.571 46.94 138.072 50.5123C134.213 50.7565 130.346 50.8065 126.472 50.6622C133.402 46.0656 140.332 41.4691 147.262 36.8725C147.165 36.3769 146.864 36.0772 146.358 35.9731C141.914 33.9921 137.495 31.9686 133.101 29.9027C134.876 28.5937 136.684 27.3196 138.524 26.0805C138.775 25.9805 139.026 25.9805 139.277 26.0805C144.064 28.2245 148.86 30.348 153.665 32.4508C163.72 26.1622 173.688 19.7419 183.569 13.1901C183.962 12.9681 184.364 12.7932 184.774 12.6655C184.727 13.098 184.779 13.4977 184.925 13.8646ZM177.995 24.6566C178.169 30.7767 178.195 36.9221 178.07 43.0928C172.362 40.6086 166.661 38.1105 160.971 35.5984C166.63 31.9101 172.305 28.2629 177.995 24.6566Z" fill="#F43097"/>
<path opacity="0.99" fill-rule="evenodd" clip-rule="evenodd" d="M97.0949 15.3635C103.005 15.1191 108.88 15.4439 114.721 16.3378C118.676 17.1066 122.191 18.7553 125.267 21.2841C128.936 24.9418 130.518 29.3635 130.012 34.5492C129.245 41.309 125.654 45.8806 119.241 48.264C116.59 49.0854 113.929 49.8348 111.256 50.5123C97.7478 50.5872 84.2393 50.6123 70.7309 50.5872C70.5329 40.9611 70.5329 31.3433 70.7309 21.7338C72.6893 20.7096 74.6478 19.6853 76.6063 18.6611C76.7569 27.404 76.8071 36.1475 76.7569 44.8915C84.4404 44.8945 92.1237 44.9444 99.8066 45.0414C103.374 45.0493 106.94 44.9744 110.503 44.8165C114.268 44.4841 117.683 43.2349 120.747 41.0693C123.89 38.0368 124.969 34.3645 123.986 30.0526C123.387 27.884 122.207 26.1104 120.446 24.7315C119.556 24.1011 118.627 23.5264 117.659 23.0078C114.406 21.791 111.042 21.0915 107.565 20.9094C101.467 21.0821 95.3652 21.1071 89.261 20.9843C91.909 19.1442 94.5202 17.2706 97.0949 15.3635Z" fill="#21E7D6"/>
<path opacity="0.966" fill-rule="evenodd" clip-rule="evenodd" d="M85.344 66.9251C83.3354 66.9251 81.3266 66.9251 79.318 66.9251C64.7907 57.3735 50.2276 47.8556 35.6291 38.3714C35.4282 38.1215 35.4282 37.8718 35.6291 37.6219C37.3421 36.4704 39.0996 35.3961 40.9019 34.3994C57.5692 44.9895 74.191 55.6565 90.7675 66.4005C90.9683 66.5004 90.9683 66.6003 90.7675 66.7002C88.9335 66.7256 87.1257 66.8005 85.344 66.9251Z" fill="#21B6DE"/>
</g>
<defs>
<clipPath id="clip0_20_856">
<rect width="185" height="67" fill="white"/>
</clipPath>
</defs>
</svg>
