<svg width="203" height="76" viewBox="0 0 203 76" fill="none" xmlns="http://www.w3.org/2000/svg">
<path d="M164.849 0H46.4123L41.3359 23.6277H160.019L164.849 0Z" fill="#F3F3F3"/>
<path d="M51.3425 18.7714C51.1927 19.4587 50.7933 19.7986 50.1369 19.7951C49.4827 19.7951 49.2282 19.4483 49.379 18.7646L52.1016 6.15081C52.1774 5.794 52.3213 5.51971 52.5218 5.32506C52.7305 5.13365 52.9813 5.03485 53.2771 5.03485L57.7454 5.05534C59.7391 5.06119 61.1232 5.33871 61.8982 5.90644C62.6736 6.46734 62.9268 7.36913 62.6609 8.6037C62.3889 9.87142 61.7887 10.8298 60.8678 11.4817C59.9474 12.1394 58.7496 12.4592 57.2654 12.4569L52.7061 12.4432L51.3425 18.7714ZM56.5492 10.5776C58.1234 10.5808 59.1643 10.4554 59.6689 10.2068C60.1733 9.98353 60.5015 9.49736 60.665 8.75578C60.7719 8.2433 60.7547 7.86667 60.6052 7.61449C60.4589 7.35874 60.1388 7.18129 59.6413 7.08217C59.1506 6.98338 58.3788 6.93367 57.3379 6.9301L53.8991 6.91645L53.1136 10.5639L56.5492 10.5776Z" fill="#131718"/>
<path d="M51.3425 18.7714C51.1927 19.4587 50.7933 19.7986 50.1369 19.7951C49.4827 19.7951 49.2282 19.4483 49.379 18.7646L52.1016 6.15081C52.1774 5.794 52.3213 5.51971 52.5218 5.32506C52.7305 5.13365 52.9813 5.03485 53.2771 5.03485L57.7454 5.05534C59.7391 5.06119 61.1232 5.33871 61.8982 5.90644C62.6736 6.46734 62.9268 7.36913 62.6609 8.6037C62.3889 9.87142 61.7887 10.8298 60.8678 11.4817C59.9474 12.1394 58.7496 12.4592 57.2654 12.4569L52.7061 12.4432L51.3425 18.7714ZM56.5492 10.5776C58.1234 10.5808 59.1643 10.4554 59.6689 10.2068C60.1733 9.98353 60.5015 9.49736 60.665 8.75578C60.7719 8.2433 60.7547 7.86667 60.6052 7.61449C60.4589 7.35874 60.1388 7.18129 59.6413 7.08217C59.1506 6.98338 58.3788 6.93367 57.3379 6.9301L53.8991 6.91645L53.1136 10.5639L56.5492 10.5776Z" fill="#131718"/>
<path d="M50.1516 19.9687H50.1353C49.7655 19.9687 49.4941 19.8595 49.3313 19.6613C49.1575 19.4481 49.1159 19.1293 49.2039 18.725L51.9285 6.1135C52.0136 5.72451 52.1748 5.41319 52.4039 5.19676C52.6447 4.9722 52.9255 4.84904 53.2768 4.86301L57.7442 4.87666C59.7951 4.87893 61.1899 5.17271 61.9994 5.76124C62.8333 6.36471 63.113 7.33443 62.831 8.63919C62.5476 9.94265 61.9233 10.9468 60.9699 11.6266C60.0219 12.2967 58.7705 12.6467 57.2652 12.6308L52.8485 12.6168L51.5116 18.8033C51.3478 19.5634 50.8759 19.9664 50.1516 19.9687ZM53.2641 5.2104C53.0204 5.21333 52.8163 5.29263 52.6447 5.45382C52.4673 5.6228 52.3428 5.86944 52.2717 6.18954L49.5491 18.7965C49.4815 19.0968 49.4997 19.3122 49.6011 19.4448C49.6989 19.5602 49.8773 19.6187 50.1366 19.6187C50.7079 19.6395 51.0381 19.3411 51.1671 18.7341L52.5674 12.2642L57.2652 12.2805C58.7081 12.2805 59.8793 11.9708 60.7681 11.3397C61.6461 10.719 62.2265 9.78048 62.4888 8.56639C62.74 7.39096 62.5122 6.56619 61.7946 6.04786C61.0537 5.5058 59.6891 5.23251 57.7442 5.22568L53.2768 5.2104H53.2641ZM56.793 10.7489H56.5477L52.8982 10.7349L53.7584 6.74134L57.3367 6.755C58.388 6.75728 59.1744 6.81057 59.6787 6.90936C60.2247 7.02246 60.5796 7.2236 60.7544 7.52323C60.9273 7.82025 60.9526 8.23361 60.8327 8.78866C60.6602 9.58549 60.2939 10.1178 59.7398 10.3619C59.2391 10.6176 58.2739 10.7418 56.793 10.7489ZM53.3324 10.3895L56.5477 10.3989C58.0919 10.4025 59.1097 10.2871 59.5904 10.0499C60.0486 9.84385 60.341 9.41196 60.4896 8.7175C60.5922 8.25344 60.576 7.9158 60.4528 7.70294C60.3339 7.48976 60.0486 7.34124 59.6073 7.25252C59.126 7.15698 58.3636 7.10758 57.3367 7.10758L54.0395 7.09492L53.3324 10.3895Z" fill="white"/>
<path d="M75.4847 14.441C75.2449 15.5466 74.7926 16.5105 74.1212 17.3326C73.453 18.1594 72.6136 18.7953 71.6026 19.2363C70.5972 19.6835 69.4835 19.9045 68.2684 19.8999C67.0504 19.8937 66.0391 19.6659 65.2202 19.2168C64.4097 18.769 63.8417 18.1275 63.532 17.2992C63.2197 16.4715 63.1829 15.5076 63.4169 14.4007L64.2713 10.4666C64.5095 9.36011 64.9625 8.39949 65.6339 7.57374C66.3004 6.74474 67.1437 6.11233 68.1511 5.6655C69.1566 5.22354 70.2712 5.00581 71.4863 5.00938C72.6991 5.00938 73.7169 5.23946 74.5322 5.68857C75.3444 6.13768 75.9134 6.78243 76.2205 7.6072C76.535 8.43523 76.5731 9.40398 76.3336 10.506L75.4847 14.441ZM71.0811 6.88739C69.7529 6.88414 68.6776 7.19027 67.8518 7.81812C67.0215 8.43979 66.4755 9.34743 66.2188 10.5378L65.3966 14.3419C65.1432 15.5326 65.2904 16.4474 65.849 17.0714C66.4067 17.6989 67.352 18.0154 68.674 18.0212C69.9947 18.0258 71.0726 17.7151 71.9055 17.0912C72.7332 16.4679 73.2782 15.557 73.5362 14.3686L74.3548 10.5648C74.6024 9.4199 74.4647 8.50543 73.9392 7.83176C73.3737 7.20749 72.419 6.88967 71.0811 6.88739Z" fill="#131718"/>
<path d="M75.4847 14.441C75.2449 15.5466 74.7926 16.5105 74.1212 17.3326C73.453 18.1594 72.6136 18.7953 71.6026 19.2363C70.5972 19.6835 69.4835 19.9045 68.2684 19.8999C67.0504 19.8937 66.0391 19.6659 65.2202 19.2168C64.4097 18.769 63.8417 18.1275 63.532 17.2992C63.2197 16.4715 63.1829 15.5076 63.4169 14.4007L64.2713 10.4666C64.5095 9.36011 64.9625 8.39949 65.6339 7.57374C66.3004 6.74474 67.1437 6.11233 68.1511 5.6655C69.1566 5.22354 70.2712 5.00581 71.4863 5.00938C72.6991 5.00938 73.7169 5.23946 74.5322 5.68857C75.3444 6.13768 75.9134 6.78243 76.2205 7.6072C76.535 8.43523 76.5731 9.40398 76.3336 10.506L75.4847 14.441ZM71.0811 6.88739C69.7529 6.88414 68.6776 7.19027 67.8518 7.81812C67.0215 8.43979 66.4755 9.34743 66.2188 10.5378L65.3966 14.3419C65.1432 15.5326 65.2904 16.4474 65.849 17.0714C66.4067 17.6989 67.352 18.0154 68.674 18.0212C69.9947 18.0258 71.0726 17.7151 71.9055 17.0912C72.7332 16.4679 73.2782 15.557 73.5362 14.3686L74.3548 10.5648C74.6024 9.4199 74.4647 8.50543 73.9392 7.83176C73.3737 7.20749 72.419 6.88967 71.0811 6.88739Z" fill="#131718"/>
<path d="M68.3526 20.0742H68.2684C67.028 20.0673 65.9735 19.8333 65.1374 19.368C64.2885 18.902 63.6945 18.2267 63.3695 17.3619C63.0449 16.5017 63.0042 15.495 63.2509 14.3644L64.101 10.428C64.3415 9.30523 64.8124 8.3053 65.4977 7.46395C66.1782 6.61837 67.0492 5.96193 68.0787 5.50599C69.1059 5.0546 70.2735 4.82291 71.486 4.83006C72.7228 4.83688 73.7767 5.07411 74.6142 5.53265C75.4627 6.00093 76.0593 6.6772 76.384 7.54552C76.7099 8.40117 76.7489 9.40792 76.5062 10.5411L75.6528 14.4759C75.411 15.6012 74.9434 16.5986 74.2583 17.4435C73.573 18.2845 72.7024 18.9465 71.6751 19.4018C70.6687 19.8405 69.5537 20.0673 68.3526 20.0742ZM71.4009 5.18232C70.2495 5.18589 69.1761 5.40461 68.2204 5.82382C67.2435 6.25571 66.4203 6.88224 65.7675 7.68135C65.1211 8.48078 64.6733 9.43068 64.4416 10.5041L63.5905 14.4359C63.3627 15.5021 63.3961 16.4465 63.6945 17.2355C63.9938 18.0255 64.5316 18.6345 65.3063 19.0641C66.0931 19.497 67.0891 19.7206 68.2684 19.7206C69.4582 19.7342 70.5533 19.5097 71.5334 19.0778C72.51 18.6482 73.338 18.0255 73.9863 17.2248C74.6359 16.4234 75.0838 15.4732 75.3106 14.4021L76.1617 10.4673C76.3921 9.40209 76.3599 8.45999 76.0583 7.669C75.7623 6.88225 75.2186 6.26935 74.4481 5.83974C73.6591 5.40687 72.6656 5.18589 71.486 5.18232H71.4009ZM68.7442 18.1958H68.674C67.3 18.1935 66.3072 17.8526 65.7177 17.1858C65.1224 16.5157 64.9576 15.5447 65.2283 14.3033L66.0482 10.5005C66.3108 9.27306 66.8831 8.32188 67.7433 7.67129C68.583 7.04117 69.685 6.71391 71.0109 6.71034H71.0811C72.4674 6.71391 73.4729 7.05027 74.0705 7.71808C74.6346 8.4379 74.7845 9.40436 74.5287 10.6029L73.7065 14.4021C73.4394 15.6357 72.8691 16.5859 72.0089 17.2316C71.1695 17.8653 70.0694 18.189 68.7442 18.1958ZM71.0132 7.05708C69.762 7.0639 68.7361 7.36451 67.9529 7.95335C67.1642 8.54968 66.639 9.42841 66.3901 10.5765L65.5692 14.3771C65.3262 15.5054 65.462 16.374 65.9803 16.9557C66.5009 17.5394 67.4108 17.84 68.674 17.8458C69.9408 17.8526 71.0047 17.5498 71.797 16.9509C72.5909 16.3565 73.1148 15.4732 73.3643 14.3296L74.1846 10.5281C74.4195 9.4375 74.2915 8.56592 73.8008 7.94263C73.2815 7.3645 72.3624 7.0639 71.0811 7.05708H71.0132Z" fill="white"/>
<path d="M83.2729 19.7453C81.7426 19.742 80.5779 19.6039 79.7697 19.3335C78.9634 19.0615 78.4305 18.6192 78.1725 18.0054C77.918 17.3973 77.905 16.5531 78.1357 15.4764L79.4301 9.48817C79.6602 8.42616 80.0232 7.59359 80.5217 6.98654C81.0192 6.37169 81.7088 5.93298 82.583 5.65903C83.463 5.38833 84.5949 5.24988 85.9815 5.25573L89.7012 5.26938C90.6179 5.27295 91.2526 5.49751 91.598 5.94695C91.9444 6.39476 92.0195 7.08922 91.8157 8.02677C91.637 8.86129 91.2178 9.27726 90.5659 9.27369C90.2517 9.27369 90.0365 9.171 89.9075 8.964C89.7782 8.75211 89.7564 8.45865 89.8393 8.08851C89.9189 7.71544 89.9085 7.46457 89.8165 7.33555C89.7138 7.21011 89.4857 7.14546 89.1289 7.14546L85.574 7.13408C84.4993 7.1318 83.7025 7.18834 83.1751 7.30696C82.6486 7.42525 82.2596 7.6498 82.0003 7.98615C81.739 8.32022 81.5353 8.834 81.3832 9.53757L80.1093 15.441C79.954 16.1572 79.9367 16.6775 80.0644 17.008C80.1866 17.3385 80.5162 17.5598 81.055 17.682C81.5882 17.8026 82.4588 17.8659 83.6794 17.8659L86.8083 17.8796C87.17 17.8796 87.4234 17.8165 87.5788 17.6921C87.7286 17.5653 87.8459 17.3158 87.9255 16.9424C88.0051 16.5693 88.1536 16.2791 88.3714 16.0705C88.5888 15.8631 88.8501 15.7608 89.1637 15.7608C89.8175 15.777 90.0479 16.2031 89.8695 17.0382C89.6703 17.9595 89.2972 18.6491 88.7604 19.096C88.217 19.5369 87.4865 19.7618 86.5701 19.755L83.2729 19.7453Z" fill="#131718"/>
<path d="M83.2729 19.7453C81.7426 19.742 80.5779 19.6039 79.7697 19.3335C78.9634 19.0615 78.4305 18.6192 78.1725 18.0054C77.918 17.3973 77.905 16.5531 78.1357 15.4764L79.4301 9.48817C79.6602 8.42616 80.0232 7.59359 80.5217 6.98654C81.0192 6.37169 81.7088 5.93298 82.583 5.65903C83.463 5.38833 84.5949 5.24988 85.9815 5.25573L89.7012 5.26938C90.6179 5.27295 91.2526 5.49751 91.598 5.94695C91.9444 6.39476 92.0195 7.08922 91.8157 8.02677C91.637 8.86129 91.2178 9.27726 90.5659 9.27369C90.2517 9.27369 90.0365 9.171 89.9075 8.964C89.7782 8.75211 89.7564 8.45865 89.8393 8.08851C89.9189 7.71544 89.9085 7.46457 89.8165 7.33555C89.7138 7.21011 89.4857 7.14546 89.1289 7.14546L85.574 7.13408C84.4993 7.1318 83.7025 7.18834 83.1751 7.30696C82.6486 7.42525 82.2596 7.6498 82.0003 7.98615C81.739 8.32022 81.5353 8.834 81.3832 9.53757L80.1093 15.441C79.954 16.1572 79.9367 16.6775 80.0644 17.008C80.1866 17.3385 80.5162 17.5598 81.055 17.682C81.5882 17.8026 82.4588 17.8659 83.6794 17.8659L86.8083 17.8796C87.17 17.8796 87.4234 17.8165 87.5788 17.6921C87.7286 17.5653 87.8459 17.3158 87.9255 16.9424C88.0051 16.5693 88.1536 16.2791 88.3714 16.0705C88.5888 15.8631 88.8501 15.7608 89.1637 15.7608C89.8175 15.777 90.0479 16.2031 89.8695 17.0382C89.6703 17.9595 89.2972 18.6491 88.7604 19.096C88.217 19.5369 87.4865 19.7618 86.5701 19.755L83.2729 19.7453Z" fill="#131718"/>
<path d="M86.6141 19.9327H86.5692L83.2685 19.9223C81.7324 19.9154 80.5368 19.7702 79.711 19.4972C78.8625 19.2141 78.288 18.7335 78.0127 18.0751C77.7407 17.43 77.7248 16.5458 77.964 15.4402L79.2551 9.44809C79.4923 8.36886 79.8712 7.50085 80.3837 6.86975C80.9043 6.23866 81.6251 5.7733 82.5328 5.48993C83.4229 5.21273 84.57 5.07105 85.9843 5.07787L89.7003 5.09282C90.6691 5.09282 91.3574 5.34824 91.7389 5.83992C92.1188 6.32608 92.2007 7.07807 91.9888 8.06046C91.7412 9.21313 91.0639 9.45166 90.5641 9.45166C90.1875 9.45166 89.9181 9.31226 89.7569 9.05195C89.6094 8.80432 89.5807 8.46699 89.6659 8.04778C89.765 7.60679 89.6958 7.47422 89.6727 7.44464C89.6532 7.41442 89.545 7.32245 89.129 7.31888L85.5742 7.30847C84.518 7.30164 83.7267 7.36243 83.2132 7.47779C82.7352 7.58243 82.3713 7.79105 82.1389 8.09165C81.8948 8.40135 81.7002 8.90344 81.5562 9.57386L80.2801 15.4734C80.1361 16.1529 80.1166 16.6504 80.2261 16.9416C80.3272 17.2123 80.621 17.4014 81.0909 17.5129C81.6124 17.6283 82.4843 17.6916 83.6786 17.6916L86.812 17.702C87.1337 17.7076 87.3488 17.6523 87.4639 17.5568C87.5481 17.4866 87.6654 17.3173 87.7518 16.9062C87.8428 16.4997 88.0098 16.1795 88.2493 15.9446C88.4957 15.7061 88.7976 15.5888 89.1502 15.5855H89.1638C89.5034 15.5946 89.7546 15.697 89.9145 15.9053C90.1163 16.16 90.1579 16.5435 90.0412 17.0778C89.8316 18.0348 89.4404 18.7605 88.8726 19.2301C88.3104 19.6922 87.549 19.9268 86.6141 19.9327ZM85.8033 5.43047C84.5193 5.44054 83.456 5.56825 82.6351 5.82401C81.7954 6.08788 81.1299 6.51749 80.6567 7.09562C80.1764 7.67829 79.8241 8.49332 79.6005 9.52413L78.3098 15.5117C78.0816 16.549 78.0956 17.3644 78.3348 17.9389C78.5723 18.4998 79.0734 18.9122 79.8274 19.1631C80.6141 19.4293 81.7727 19.5664 83.2731 19.571L86.5692 19.5823C87.448 19.5664 88.1411 19.3717 88.6481 18.9581C89.157 18.5392 89.5083 17.8792 89.7003 16.9982C89.7878 16.5825 89.7705 16.2852 89.637 16.123C89.5414 16.0008 89.3884 15.9414 89.1593 15.9352H89.1502C88.8886 15.9352 88.6744 16.0242 88.4957 16.199C88.3023 16.381 88.1687 16.6446 88.0963 16.9787C88.0076 17.3946 87.8717 17.6708 87.6862 17.8229C87.5055 17.9783 87.2244 18.0507 86.8292 18.0507H86.812L83.6786 18.0439C82.458 18.0407 81.5595 17.976 81.0148 17.8528C80.4217 17.718 80.0418 17.4512 79.8989 17.0706C79.7617 16.6998 79.7757 16.1601 79.9369 15.4032L81.214 9.50009C81.372 8.76533 81.5848 8.23301 81.8646 7.87652C82.1457 7.50995 82.574 7.25908 83.1362 7.13332C83.6715 7.01113 84.4962 6.9549 85.5777 6.95847L89.129 6.96888C89.546 6.96888 89.8157 7.055 89.9528 7.23373C90.0874 7.40401 90.1036 7.68869 90.0078 8.12383C89.9402 8.45075 89.9561 8.70196 90.0585 8.87127C90.1481 9.02205 90.3155 9.09809 90.5651 9.10167H90.5778C91.1364 9.09809 91.4844 8.73413 91.6466 7.98897C91.8367 7.107 91.7733 6.45413 91.4601 6.05084C91.1478 5.65145 90.5537 5.4441 89.7003 5.44053L85.9784 5.43047H85.8033Z" fill="white"/>
<path d="M98.0235 19.7947C96.4942 19.7866 95.3298 19.653 94.5203 19.3823C93.7153 19.1074 93.1821 18.6661 92.9231 18.0535C92.6696 17.4442 92.6533 16.6002 92.886 15.5291L94.1827 9.53498C94.4098 8.47427 94.7715 7.64268 95.2723 7.03238C95.7698 6.42079 96.4594 5.98207 97.3359 5.70552C98.2133 5.43059 99.3455 5.30157 100.732 5.30157L104.449 5.31654C105.37 5.32336 106.001 5.54337 106.352 5.99573C106.697 6.44061 106.77 7.13378 106.565 8.07815C106.389 8.90748 105.971 9.32667 105.317 9.3231C105 9.3231 104.785 9.21717 104.659 9.00984C104.53 8.79763 104.51 8.50971 104.588 8.13437C104.669 7.76487 104.659 7.51009 104.566 7.38498C104.466 7.25922 104.24 7.19487 103.878 7.19487L100.329 7.18089C99.2499 7.18089 98.4508 7.23743 97.9276 7.3515C97.4015 7.47109 97.0102 7.69793 96.7509 8.03557C96.4932 8.36607 96.2868 8.88439 96.1361 9.58438L94.8589 15.4865C94.7036 16.2028 94.6909 16.7266 94.816 17.0552C94.9372 17.3847 95.2668 17.6089 95.8056 17.7308C96.3398 17.8507 97.213 17.9131 98.431 17.9154L101.56 17.9258C101.923 17.9258 102.176 17.8634 102.33 17.7382C102.479 17.6125 102.597 17.3626 102.678 16.9918C102.756 16.6187 102.908 16.3285 103.122 16.1176C103.342 15.9126 103.602 15.8066 103.917 15.8066C104.566 15.8261 104.803 16.2525 104.622 17.087C104.425 18.0086 104.052 18.6963 103.51 19.1418C102.972 19.5864 102.239 19.8086 101.32 19.8051L98.0235 19.7947Z" fill="#131718"/>
<path d="M98.0235 19.7947C96.4942 19.7866 95.3298 19.653 94.5203 19.3823C93.7153 19.1074 93.1821 18.6661 92.9231 18.0535C92.6696 17.4442 92.6533 16.6002 92.886 15.5291L94.1827 9.53498C94.4098 8.47427 94.7715 7.64268 95.2723 7.03238C95.7698 6.42079 96.4594 5.98207 97.3359 5.70552C98.2133 5.43059 99.3455 5.30157 100.732 5.30157L104.449 5.31654C105.37 5.32336 106.001 5.54337 106.352 5.99573C106.697 6.44061 106.77 7.13378 106.565 8.07815C106.389 8.90748 105.971 9.32667 105.317 9.3231C105 9.3231 104.785 9.21717 104.659 9.00984C104.53 8.79763 104.51 8.50971 104.588 8.13437C104.669 7.76487 104.659 7.51009 104.566 7.38498C104.466 7.25922 104.24 7.19487 103.878 7.19487L100.329 7.18089C99.2499 7.18089 98.4508 7.23743 97.9276 7.3515C97.4015 7.47109 97.0102 7.69793 96.7509 8.03557C96.4932 8.36607 96.2868 8.88439 96.1361 9.58438L94.8589 15.4865C94.7036 16.2028 94.6909 16.7266 94.816 17.0552C94.9372 17.3847 95.2668 17.6089 95.8056 17.7308C96.3398 17.8507 97.213 17.9131 98.431 17.9154L101.56 17.9258C101.923 17.9258 102.176 17.8634 102.33 17.7382C102.479 17.6125 102.597 17.3626 102.678 16.9918C102.756 16.6187 102.908 16.3285 103.122 16.1176C103.342 15.9126 103.602 15.8066 103.917 15.8066C104.566 15.8261 104.803 16.2525 104.622 17.087C104.425 18.0086 104.052 18.6963 103.51 19.1418C102.972 19.5864 102.239 19.8086 101.32 19.8051L98.0235 19.7947Z" fill="#131718"/>
<path d="M101.364 19.9802C101.35 19.9838 101.334 19.9802 101.319 19.9802L98.0235 19.9695C96.4811 19.9626 95.2882 19.8223 94.467 19.5483C93.6126 19.2604 93.039 18.7823 92.766 18.1259C92.4931 17.4812 92.4772 16.5943 92.7131 15.491L94.0097 9.49563C94.2401 8.41185 94.6216 7.55164 95.1361 6.92054C95.6544 6.28717 96.3742 5.8254 97.2841 5.53975C98.1707 5.26352 99.3383 5.12866 100.734 5.12866L104.45 5.14166C105.424 5.14491 106.109 5.39578 106.489 5.88779C106.87 6.3759 106.953 7.12561 106.739 8.11158C106.493 9.25158 105.84 9.49563 105.329 9.50148H105.319C104.935 9.49791 104.665 9.36304 104.508 9.09949C104.358 8.85186 104.326 8.51551 104.42 8.09987C104.516 7.65303 104.448 7.52174 104.424 7.49055C104.403 7.46552 104.298 7.36967 103.879 7.36967L100.329 7.35699C99.2681 7.35699 98.4735 7.41354 97.9669 7.52533C97.483 7.62997 97.1249 7.84185 96.8922 8.13887C96.6482 8.45214 96.4512 8.95422 96.3086 9.62463L95.0301 15.5268C94.8849 16.2037 94.8631 16.699 94.9775 16.9927C95.0786 17.2644 95.3688 17.4526 95.8422 17.5595C96.358 17.6768 97.2321 17.7392 98.4306 17.7428L101.567 17.7541C101.946 17.7587 102.133 17.6722 102.213 17.6043C102.299 17.5377 102.417 17.3645 102.506 16.9524C102.591 16.5495 102.761 16.2268 102.999 15.9931C103.247 15.7549 103.566 15.6373 103.915 15.6373C104.253 15.6418 104.505 15.7513 104.664 15.9528C104.866 16.2109 104.905 16.5943 104.793 17.1253C104.585 18.0788 104.193 18.8041 103.623 19.2776C103.062 19.7394 102.299 19.9766 101.364 19.9802ZM100.57 5.48093C99.2749 5.48775 98.2074 5.61936 97.3888 5.87511C96.5432 6.13509 95.8822 6.56471 95.4077 7.14154C94.93 7.72876 94.5729 8.54444 94.3509 9.5681L93.0585 15.5635C92.833 16.5966 92.8457 17.4142 93.0861 17.9865C93.326 18.5545 93.8141 18.9562 94.5774 19.2155C95.3652 19.4814 96.5237 19.6139 98.028 19.6208L101.319 19.6334C102.184 19.6139 102.893 19.4229 103.399 19.0056C103.907 18.59 104.263 17.9267 104.45 17.0493C104.539 16.6333 104.52 16.3386 104.389 16.1705C104.295 16.0519 104.141 15.9931 103.911 15.9817C103.645 15.9746 103.428 16.0701 103.24 16.2443C103.05 16.4318 102.923 16.6934 102.846 17.0285C102.758 17.4451 102.626 17.7216 102.439 17.8737C102.258 18.0271 101.983 18.0983 101.591 18.1019H101.561L98.4306 18.0911C97.186 18.0879 96.3154 18.0271 95.7626 17.9004C95.1695 17.7691 94.7974 17.5039 94.6489 17.1195C94.5118 16.7555 94.5245 16.2108 94.6905 15.4543L95.9618 9.55088C96.1194 8.82424 96.3359 8.28056 96.6114 7.92374C96.8968 7.55847 97.3241 7.30987 97.8886 7.18541C98.4306 7.05867 99.2258 7.00699 100.329 7.00699L103.879 7.01967C104.298 7.01967 104.568 7.10481 104.703 7.28095C104.837 7.45513 104.856 7.73948 104.762 8.17137C104.691 8.50187 104.706 8.74949 104.806 8.9188C104.9 9.07284 105.067 9.14889 105.315 9.14889H105.323C105.885 9.14889 106.237 8.78492 106.397 8.03651C106.587 7.15811 106.526 6.50458 106.214 6.10194C105.901 5.70223 105.311 5.49489 104.45 5.49132L100.733 5.48093H100.57Z" fill="white"/>
<path d="M107.223 18.9068L109.953 6.27348C110.11 5.54327 110.517 5.18061 111.171 5.18386C111.826 5.18386 112.069 5.57448 111.902 6.34954L109.678 16.6359L120.19 5.76913C120.563 5.39931 120.943 5.2131 121.316 5.2131C121.939 5.21765 122.172 5.5839 122.018 6.31509L119.287 18.9493C119.132 19.6623 118.727 20.0227 118.071 20.0169C117.414 20.0169 117.161 19.676 117.309 19.0059L119.558 8.59054L109.16 19.3627C108.918 19.6129 108.719 19.7855 108.562 19.8651C108.402 19.9431 108.199 19.986 107.947 19.986C107.311 19.9837 107.066 19.6233 107.223 18.9068Z" fill="#131718"/>
<path d="M107.223 18.9068L109.953 6.27348C110.11 5.54327 110.517 5.18061 111.171 5.18386C111.826 5.18386 112.069 5.57448 111.902 6.34954L109.678 16.6359L120.19 5.76913C120.563 5.39931 120.943 5.2131 121.316 5.2131C121.939 5.21765 122.172 5.5839 122.018 6.31509L119.287 18.9493C119.132 19.6623 118.727 20.0227 118.071 20.0169C117.414 20.0169 117.161 19.676 117.309 19.0059L119.558 8.59054L109.16 19.3627C108.918 19.6129 108.719 19.7855 108.562 19.8651C108.402 19.9431 108.199 19.986 107.947 19.986C107.311 19.9837 107.066 19.6233 107.223 18.9068Z" fill="#131718"/>
<path d="M118.084 20.1916H118.068C117.699 20.1916 117.421 20.0889 117.26 19.8838C117.092 19.6729 117.051 19.3655 117.135 18.973L119.259 9.15295L109.284 19.4822C109.03 19.749 108.819 19.9277 108.638 20.0174C108.456 20.1116 108.226 20.1591 107.949 20.1591C107.595 20.1591 107.336 20.0603 107.178 19.8575C106.995 19.6398 106.959 19.3057 107.05 18.8716L109.78 6.23828C109.998 5.22729 110.643 5.00825 111.152 5.005H111.17C111.521 5.005 111.779 5.11062 111.942 5.31243C112.134 5.55421 112.177 5.90064 112.069 6.38225L109.978 16.0706L120.062 5.64976C120.478 5.24452 120.88 5.0427 121.318 5.03815C121.653 5.0427 121.904 5.14215 122.06 5.33291C122.241 5.56104 122.281 5.89381 122.185 6.34877L119.453 18.9856C119.287 19.7724 118.812 20.188 118.084 20.1916ZM119.858 8.02335L117.478 19.0422C117.415 19.3333 117.436 19.542 117.535 19.6661C117.63 19.7824 117.809 19.8436 118.07 19.8436H118.084C118.647 19.8413 118.976 19.542 119.112 18.9109L121.838 6.2763C121.916 5.93313 121.899 5.68874 121.787 5.5542C121.699 5.44469 121.539 5.39172 121.315 5.39172H121.307C120.985 5.39172 120.651 5.56103 120.314 5.89381L109.376 17.196L111.727 6.30848C111.806 5.94353 111.787 5.68192 111.666 5.53113C111.576 5.41479 111.408 5.35858 111.17 5.35598H111.152C110.589 5.35858 110.261 5.66601 110.123 6.30848L107.393 18.943C107.322 19.27 107.342 19.504 107.447 19.6398C107.541 19.749 107.707 19.8055 107.95 19.8088C108.183 19.8055 108.349 19.7792 108.479 19.71C108.62 19.6339 108.807 19.4786 109.032 19.2433L119.858 8.02335Z" fill="white"/>
<path d="M131.994 19.0316L133.177 13.5545L129.882 13.5408C129.163 13.5408 128.608 13.6539 128.206 13.884C127.803 14.1131 127.464 14.505 127.189 15.0565L126.16 17.1363C125.704 18.0115 125.118 18.715 124.403 19.2425C123.688 19.7712 122.96 20.0315 122.213 20.0315C121.396 20.0279 121.061 19.7159 121.196 19.0881C121.333 18.4732 121.802 18.173 122.61 18.1775C122.895 18.1775 123.185 18.0485 123.491 17.7869C123.795 17.5256 124.019 17.2631 124.154 16.9924L125.3 14.713C125.665 14.0293 126.141 13.4521 126.725 12.9975C125.296 12.3202 124.763 11.1422 125.13 9.45464C125.409 8.14435 126.119 7.1402 127.252 6.44021C128.382 5.74444 129.862 5.39769 131.686 5.40452L135.988 5.4172C136.61 5.42402 136.84 5.80098 136.676 6.56304L133.981 19.039C133.834 19.725 133.438 20.0672 132.801 20.065C132.116 20.0614 131.846 19.7182 131.994 19.0316ZM134.53 7.29326L131.283 7.28286C130.002 7.27929 129.032 7.45347 128.37 7.81061C127.709 8.16645 127.294 8.7384 127.121 9.52971C126.816 10.9463 127.888 11.657 130.334 11.6661L133.583 11.6765L134.53 7.29326Z" fill="#131718"/>
<path d="M131.994 19.0316L133.177 13.5545L129.882 13.5408C129.163 13.5408 128.608 13.6539 128.206 13.884C127.803 14.1131 127.464 14.505 127.189 15.0565L126.16 17.1363C125.704 18.0115 125.118 18.715 124.403 19.2425C123.688 19.7712 122.96 20.0315 122.213 20.0315C121.396 20.0279 121.061 19.7159 121.196 19.0881C121.333 18.4732 121.802 18.173 122.61 18.1775C122.895 18.1775 123.185 18.0485 123.491 17.7869C123.795 17.5256 124.019 17.2631 124.154 16.9924L125.3 14.713C125.665 14.0293 126.141 13.4521 126.725 12.9975C125.296 12.3202 124.763 11.1422 125.13 9.45464C125.409 8.14435 126.119 7.1402 127.252 6.44021C128.382 5.74444 129.862 5.39769 131.686 5.40452L135.988 5.4172C136.61 5.42402 136.84 5.80098 136.676 6.56304L133.981 19.039C133.834 19.725 133.438 20.0672 132.801 20.065C132.116 20.0614 131.846 19.7182 131.994 19.0316ZM134.53 7.29326L131.283 7.28286C130.002 7.27929 129.032 7.45347 128.37 7.81061C127.709 8.16645 127.294 8.7384 127.121 9.52971C126.816 10.9463 127.888 11.657 130.334 11.6661L133.583 11.6765L134.53 7.29326Z" fill="#131718"/>
<path d="M132.818 20.2401H132.801C132.407 20.2401 132.121 20.1309 131.952 19.9236C131.781 19.7049 131.739 19.3988 131.825 18.9964L132.963 13.7303L129.881 13.7176C129.211 13.7303 128.664 13.8235 128.295 14.0364C127.923 14.2483 127.607 14.6181 127.349 15.1328L126.319 17.2127C125.85 18.1145 125.242 18.8401 124.511 19.3858C123.763 19.9327 122.99 20.2115 122.209 20.2047C121.697 20.2047 121.352 20.0848 121.158 19.8475C121.001 19.6483 120.956 19.3789 121.026 19.053C121.133 18.5704 121.495 18.0153 122.609 17.9991H122.615C122.854 17.9991 123.107 17.8831 123.377 17.6524C123.665 17.4073 123.873 17.1597 123.996 16.9121L125.145 14.6353C125.476 14.0114 125.903 13.4768 126.409 13.03C125.086 12.301 124.595 11.0896 124.952 9.41953C125.252 8.06537 125.991 7.01635 127.159 6.29296C128.292 5.5998 129.776 5.2394 131.572 5.22998H131.687L135.991 5.24396C136.321 5.24493 136.569 5.34178 136.722 5.53643C136.912 5.77106 136.951 6.11781 136.849 6.59942L134.154 19.0783C133.988 19.8339 133.527 20.2369 132.818 20.2401ZM132.168 19.0715C132.105 19.3617 132.122 19.5736 132.226 19.7026C132.326 19.8245 132.517 19.8901 132.801 19.8901C133.356 19.8937 133.678 19.609 133.809 19.0023L136.505 6.52468C136.581 6.16396 136.564 5.90008 136.451 5.75514C136.364 5.6492 136.206 5.59526 135.987 5.59526L131.687 5.58031C129.916 5.56731 128.441 5.91406 127.344 6.58902C126.258 7.26041 125.571 8.23337 125.298 9.49458C124.95 11.1019 125.443 12.1964 126.8 12.8353L127.054 12.9585L126.835 13.1362C126.272 13.5782 125.806 14.1404 125.457 14.7968L124.31 17.071C124.162 17.3576 123.93 17.6455 123.605 17.9198C123.269 18.2064 122.945 18.3585 122.609 18.3481C121.897 18.3481 121.482 18.599 121.369 19.1245C121.32 19.3468 121.341 19.5148 121.432 19.623C121.552 19.7751 121.822 19.8547 122.214 19.8547C122.908 19.8475 123.618 19.6058 124.301 19.1024C124.988 18.5922 125.564 17.9039 126.003 17.0551L127.037 14.9785C127.321 14.4004 127.691 13.9789 128.117 13.7348C128.533 13.4966 129.112 13.3731 129.834 13.3663H129.881L133.396 13.3799L132.168 19.0715ZM133.723 11.8519L130.334 11.8393C128.727 11.836 127.708 11.5338 127.22 10.9271C126.917 10.5553 126.826 10.0727 126.951 9.49458C127.134 8.65583 127.583 8.03547 128.286 7.65622C128.976 7.28673 129.966 7.1015 131.283 7.10833L134.747 7.12101L133.723 11.8519ZM131.165 7.45734C129.981 7.46416 129.066 7.63348 128.454 7.96398C127.834 8.3 127.454 8.82449 127.295 9.56705C127.19 10.0461 127.256 10.4169 127.491 10.7106C127.904 11.2254 128.861 11.488 130.336 11.4925L133.443 11.5019L134.312 7.46775L131.279 7.45734H131.165Z" fill="white"/>
<path d="M146.355 14.3242C146.239 14.1826 146.205 13.995 146.26 13.7529C146.312 13.5021 146.428 13.3074 146.604 13.1716C146.785 13.0435 146.995 12.9733 147.244 12.9733L155.916 13.0045C156.183 13.0045 156.372 13.0728 156.48 13.2041C156.593 13.3409 156.622 13.5342 156.568 13.79C156.511 14.0409 156.399 14.2358 156.23 14.3671C156.063 14.503 155.846 14.5683 155.579 14.5683L146.908 14.5397C146.656 14.5397 146.474 14.4695 146.355 14.3242Z" fill="#131718"/>
<path d="M146.355 14.3242C146.239 14.1826 146.205 13.995 146.26 13.7529C146.312 13.5021 146.428 13.3074 146.604 13.1716C146.785 13.0435 146.995 12.9733 147.244 12.9733L155.916 13.0045C156.183 13.0045 156.372 13.0728 156.48 13.2041C156.593 13.3409 156.622 13.5342 156.568 13.79C156.511 14.0409 156.399 14.2358 156.23 14.3671C156.063 14.503 155.846 14.5683 155.579 14.5683L146.908 14.5397C146.656 14.5397 146.474 14.4695 146.355 14.3242Z" fill="#131718"/>
<path d="M155.594 14.743H155.578L146.904 14.7177C146.604 14.7141 146.371 14.6186 146.222 14.4356C146.069 14.2523 146.021 14.0106 146.083 13.7171C146.148 13.4233 146.288 13.1916 146.5 13.034C146.709 12.8761 146.958 12.8026 147.245 12.8004L155.915 12.8254C156.234 12.8254 156.471 12.919 156.616 13.0928C156.763 13.2722 156.805 13.5199 156.739 13.8227C156.676 14.1165 156.539 14.3466 156.341 14.5035C156.142 14.6611 155.894 14.7408 155.594 14.743ZM147.232 13.1491C147.026 13.1491 146.857 13.202 146.709 13.3148C146.568 13.4233 146.475 13.5754 146.427 13.7905C146.387 13.9735 146.409 14.1129 146.489 14.2124V14.2156C146.574 14.3147 146.709 14.3654 146.908 14.3654L155.579 14.3904C155.792 14.3904 155.986 14.3365 156.122 14.2328C156.261 14.1197 156.351 13.968 156.393 13.7503C156.439 13.5556 156.42 13.4071 156.349 13.3148C156.273 13.2264 156.126 13.179 155.915 13.179L147.243 13.1491H147.237H147.232Z" fill="white"/>
<path d="M61.9751 26.0706L56.8447 49.9391H154.24L159.372 26.0706H61.9751Z" fill="#3C6B9A"/>
<path d="M70.4166 46.0199C68.8896 46.0199 67.7242 45.8782 66.9147 45.6091C66.1059 45.3358 65.5761 44.8949 65.3181 44.2797C65.0627 43.6697 65.049 42.8277 65.2804 41.7521L66.5735 35.7602C66.8026 34.7041 67.1666 33.8715 67.6654 33.2576C68.1606 32.6473 68.8528 32.2086 69.7267 31.9347C70.6067 31.6604 71.7363 31.5245 73.1275 31.5314L76.8439 31.5418C77.7626 31.5486 78.3986 31.7686 78.745 32.2213C79.0895 32.6704 79.1622 33.3603 78.9617 34.3011C78.7811 35.136 78.3628 35.5529 77.7064 35.5529C77.3976 35.5529 77.1776 35.4466 77.0525 35.2318C76.9281 35.0277 76.9047 34.7343 76.982 34.3641C77.0639 33.9911 77.0548 33.7402 76.9567 33.6112C76.8575 33.4845 76.6356 33.4234 76.2739 33.4201L72.7197 33.4097C71.6463 33.4074 70.8459 33.4663 70.322 33.5813C69.7949 33.7009 69.4076 33.9245 69.1453 34.2585C68.885 34.5949 68.6787 35.1119 68.5301 35.8132L67.253 41.7166C67.0977 42.4329 67.0837 42.9531 67.2082 43.2801C67.3323 43.6141 67.6608 43.8354 68.1951 43.9576C68.7329 44.0782 69.6071 44.1383 70.8241 44.1416L73.9542 44.152C74.3124 44.1542 74.5694 44.0922 74.7235 43.9645C74.8723 43.841 74.9873 43.5914 75.0692 43.218C75.1508 42.8436 75.2993 42.557 75.517 42.3461C75.7325 42.1378 75.9964 42.0364 76.307 42.0364C76.9599 42.0527 77.1949 42.4777 77.0142 43.3126C76.8137 44.2384 76.4455 44.9238 75.9054 45.3703C75.3617 45.8165 74.6351 46.0375 73.7138 46.0339L70.4166 46.0199Z" fill="white"/>
<path d="M73.764 46.2107H73.7111L70.4162 46.198C68.8778 46.1944 67.6799 46.0459 66.861 45.7717C66.0076 45.4886 65.4331 45.0093 65.1555 44.3496C64.8874 43.7058 64.8699 42.8212 65.1097 41.7183L66.4018 35.7239C66.639 34.6437 67.0166 33.7786 67.5278 33.1478C68.0471 32.5144 68.7669 32.0514 69.6746 31.768C70.5657 31.4882 71.7242 31.3536 73.1271 31.3559L76.8425 31.3686C77.8164 31.3686 78.5041 31.6227 78.8807 32.1147C79.2606 32.6041 79.3448 33.3503 79.1316 34.3395C78.8807 35.4798 78.2311 35.7239 77.7222 35.7261H77.7072C77.3338 35.7261 77.0612 35.5916 76.902 35.3241C76.7512 35.0788 76.718 34.7428 76.81 34.3268C76.9042 33.878 76.8412 33.75 76.8168 33.7188C76.7986 33.6934 76.6901 33.5969 76.2735 33.5969L72.7205 33.5842C71.6611 33.5807 70.8689 33.6369 70.3577 33.75C69.8783 33.8569 69.5121 34.0655 69.283 34.3658C69.0386 34.6794 68.8456 35.1747 68.6967 35.8483L67.4242 41.7514C67.2779 42.4322 67.2594 42.9236 67.3689 43.2197C67.4703 43.4881 67.7615 43.6759 68.235 43.7874C68.7543 43.9027 69.6239 43.9638 70.8227 43.9707L73.9551 43.9798C74.2557 43.9798 74.4907 43.9313 74.6083 43.8313C74.6912 43.7624 74.8085 43.5953 74.8972 43.1807C74.9869 42.7751 75.1526 42.4505 75.3934 42.2191C75.6378 41.9851 75.9426 41.8632 76.2939 41.861H76.3066C76.6475 41.8691 76.8987 41.9747 77.0566 42.1811C77.2601 42.4358 77.2994 42.8212 77.1831 43.35C76.9744 44.3138 76.5854 45.0349 76.0177 45.5023C75.4545 45.9644 74.6957 46.2013 73.764 46.2107ZM72.9555 31.701C71.6702 31.7118 70.6027 31.844 69.7792 32.1021C68.9389 32.3669 68.2743 32.7884 67.8008 33.3701C67.3192 33.9528 66.9679 34.7714 66.7414 35.7986L65.4513 41.7908C65.2303 42.8212 65.2407 43.6366 65.4815 44.2147C65.7119 44.7756 66.2162 45.1844 66.9715 45.4412C67.7592 45.7037 68.9181 45.8386 70.4184 45.849L73.7133 45.8581C74.5976 45.8536 75.2875 45.6498 75.7909 45.2338C76.2975 44.8149 76.6511 44.1536 76.8425 43.2762C76.9322 42.857 76.9114 42.5632 76.7814 42.3952C76.6865 42.2753 76.5302 42.2168 76.3021 42.2096C76.0427 42.2132 75.8208 42.2964 75.6355 42.47C75.4451 42.6555 75.3115 42.9168 75.2391 43.2567C75.1526 43.6691 75.0204 43.9466 74.8306 44.0987C74.6473 44.254 74.3503 44.3288 73.9551 44.3288L70.8227 44.3151C69.5813 44.3151 68.7062 44.2505 68.1602 44.125C67.5626 43.9889 67.1892 43.7256 67.0439 43.3396C66.9049 42.9824 66.9188 42.4358 67.081 41.679L68.3594 35.7755C68.5102 35.0535 68.7315 34.5042 69.0068 34.152C69.2898 33.7854 69.7185 33.5345 70.2823 33.4091C70.8169 33.2895 71.6368 33.2307 72.7205 33.233L76.2735 33.2443C76.694 33.2466 76.9644 33.3295 77.0943 33.505C77.2279 33.6798 77.2442 33.9664 77.1545 34.396C77.0817 34.7265 77.0989 34.9777 77.2006 35.1467C77.2939 35.2998 77.4619 35.3735 77.7072 35.3735H77.7186C78.2763 35.3735 78.6272 35.0096 78.7865 34.267C78.9818 33.3828 78.9161 32.7318 78.6055 32.3299C78.2935 31.9272 77.6988 31.7231 76.8425 31.7186L73.1248 31.701H72.9555Z" fill="white"/>
<path d="M91.2439 31.587C92.0095 31.5903 92.3218 31.9058 92.1882 32.5337C92.0521 33.1579 91.6056 33.4722 90.8373 33.4686L87.5194 33.4582L84.9846 45.1968C84.9212 45.4951 84.7591 45.7392 84.5079 45.9303C84.257 46.125 83.9596 46.2218 83.6165 46.2218C83.27 46.2218 83.0266 46.1249 82.8804 45.9543C82.7286 45.7714 82.6929 45.5179 82.7631 45.1887L85.2979 33.4491L81.9328 33.4387C81.5747 33.4387 81.3111 33.35 81.1473 33.1774C80.9803 33.0023 80.9296 32.7777 80.9884 32.4979C81.0518 32.2113 81.2016 31.9864 81.4408 31.8138C81.6806 31.6436 81.9812 31.5568 82.337 31.5617L91.2439 31.587Z" fill="white"/>
<path d="M83.6325 46.3921H83.6107C83.2191 46.3921 82.9231 46.2825 82.7437 46.0612C82.5581 45.8403 82.5061 45.5338 82.588 45.1513L85.0789 33.6226L81.9303 33.6122C81.5218 33.6087 81.2186 33.5076 81.022 33.3003C80.8133 33.0848 80.7409 32.8037 80.8159 32.4573C80.8884 32.1333 81.0619 31.8675 81.3408 31.6728C81.6082 31.4804 81.9407 31.378 82.3371 31.3816L91.244 31.4151C91.7194 31.4174 92.0395 31.5266 92.227 31.757C92.3836 31.9597 92.4311 32.2327 92.3573 32.5691C92.2504 33.0582 91.905 33.6363 90.8612 33.6431H90.8371L87.6611 33.6294L85.1517 45.2287C85.0789 45.5696 84.8986 45.8529 84.6139 46.0716C84.3328 46.2825 84.0068 46.3921 83.6325 46.3921ZM82.3209 31.7339C82.0063 31.7339 81.7463 31.8064 81.5426 31.9597C81.3352 32.1047 81.2131 32.2893 81.1601 32.533C81.113 32.7543 81.1461 32.9304 81.2729 33.0546C81.4019 33.194 81.6241 33.2632 81.9303 33.2632L85.5144 33.2723L82.9348 45.2228C82.8746 45.5016 82.9003 45.7022 83.0105 45.838C83.1281 45.9761 83.3276 46.0417 83.6156 46.0453C83.909 46.0521 84.1788 45.9634 84.401 45.7941C84.622 45.6261 84.753 45.4175 84.8095 45.1572L87.3778 33.2791L90.8371 33.2934C91.5225 33.2791 91.8955 33.0422 92.0142 32.4976C92.0635 32.2659 92.044 32.0943 91.9566 31.9779C91.8413 31.8363 91.5998 31.767 91.244 31.7638L82.3371 31.7339H82.3232H82.3209Z" fill="white"/>
<path d="M93.7242 45.224C93.5757 45.9106 93.1747 46.2548 92.5228 46.248C91.869 46.248 91.6145 45.9048 91.7607 45.2171L94.4879 32.6069C94.5617 32.2498 94.703 31.9732 94.9104 31.7812C95.1151 31.5901 95.3676 31.4877 95.6659 31.491L100.128 31.5072C102.123 31.5173 103.511 31.7952 104.285 32.3583C105.062 32.9235 105.313 33.822 105.046 35.0598C104.771 36.3266 104.173 37.2872 103.253 37.9388C102.33 38.5884 101.136 38.9143 99.6514 38.9088L95.0924 38.8958L93.7242 45.224ZM98.9316 37.0301C100.509 37.0337 101.549 36.9118 102.06 36.6603C102.557 36.4393 102.887 35.9535 103.047 35.2119C103.155 34.6994 103.139 34.3205 102.992 34.0693C102.845 33.8149 102.523 33.6397 102.029 33.5386C101.537 33.4418 100.764 33.3901 99.7216 33.3865L96.2866 33.3762L95.4989 37.0197L98.9316 37.0301Z" fill="white"/>
<path d="M92.5388 46.4281H92.5216C92.1518 46.4223 91.8827 46.3199 91.7199 46.1171C91.5473 45.9075 91.5044 45.5897 91.5886 45.1809L94.3145 32.5694C94.4012 32.1765 94.5588 31.8694 94.7879 31.6494C95.0297 31.4281 95.342 31.3186 95.6644 31.3153L100.129 31.3325C102.182 31.3371 103.576 31.6283 104.388 32.2171C105.218 32.8206 105.497 33.7877 105.217 35.0951C104.935 36.4031 104.307 37.4063 103.354 38.0799C102.406 38.75 101.141 39.0968 99.6511 39.0831L95.2358 39.0727L93.8965 45.2592C93.7341 46.019 93.2654 46.4223 92.5388 46.4281ZM95.6517 31.6666C95.4015 31.6689 95.2003 31.7482 95.031 31.9107C94.8513 32.0745 94.7259 32.323 94.6567 32.6422L91.934 45.2524C91.8697 45.553 91.8872 45.7717 91.9896 45.8971C92.0825 46.0122 92.2613 46.0746 92.5239 46.0746H92.5388C93.102 46.071 93.4234 45.7876 93.5556 45.1877L94.9504 38.7201L99.6511 38.7364C101.077 38.7364 102.263 38.4231 103.15 37.7956C104.03 37.1723 104.61 36.237 104.875 35.0203C105.129 33.8465 104.901 33.0221 104.181 32.5005C103.442 31.9614 102.075 31.6884 100.128 31.6816L95.6621 31.6666H95.653H95.6517ZM99.1712 37.2071H98.9313L95.2799 37.1944L96.1447 33.1969L99.7213 33.2073C100.772 33.2096 101.562 33.2661 102.062 33.3652C102.605 33.4744 102.967 33.6795 103.138 33.9788C103.316 34.2726 103.335 34.6895 103.221 35.2436C103.046 36.0417 102.679 36.5737 102.127 36.8177C101.628 37.0686 100.652 37.198 99.1712 37.2071ZM98.9313 36.8545C100.479 36.8613 101.5 36.743 101.98 36.5022C102.434 36.2994 102.73 35.8675 102.878 35.1721C102.976 34.7126 102.962 34.3694 102.838 34.1543C102.718 33.9469 102.434 33.7949 101.994 33.7081C101.515 33.6129 100.749 33.5632 99.7213 33.5563L96.4258 33.5459L95.7187 36.8421L98.9313 36.8545Z" fill="white"/>
<path d="M114.618 31.6668L117.294 45.1684C117.309 45.3147 117.294 45.5044 117.248 45.7222C117.203 45.9376 117.062 46.1219 116.832 46.2866C116.599 46.4488 116.353 46.5284 116.087 46.5284C115.603 46.5236 115.32 46.2866 115.238 45.8086L114.508 41.9359L108.196 41.9161L105.795 45.7752C105.471 46.2499 105.089 46.495 104.636 46.4917C104.369 46.4917 104.156 46.4066 103.998 46.2438C103.837 46.0793 103.781 45.8918 103.823 45.6832C103.876 45.4622 103.937 45.2731 104.014 45.1259L112.517 31.6597L114.618 31.6668ZM112.937 34.4778L109.394 40.0401L114.119 40.054L112.937 34.4778Z" fill="white"/>
<path d="M116.103 46.699H116.086C115.52 46.699 115.163 46.4019 115.065 45.841L114.361 42.111L108.293 42.0915L105.945 45.8696C105.586 46.3951 105.151 46.6619 104.647 46.6619H104.636C104.322 46.6619 104.065 46.5641 103.873 46.3662C103.674 46.1576 103.6 45.9089 103.655 45.6464C103.705 45.4046 103.779 45.2008 103.863 45.0419L112.418 31.4835L114.765 31.4874L114.792 31.6287L117.466 45.1316C117.486 45.3159 117.466 45.5174 117.416 45.7617C117.363 46.0149 117.2 46.2372 116.933 46.425C116.677 46.6106 116.398 46.699 116.103 46.699ZM108.099 41.7402L114.655 41.7607L115.409 45.7741C115.479 46.1741 115.688 46.3522 116.089 46.3522H116.099C116.326 46.349 116.532 46.2833 116.729 46.1416C116.923 46.0032 117.037 45.8537 117.077 45.6889C117.118 45.4875 117.133 45.3159 117.123 45.1846L114.477 31.8406L112.614 31.8338L104.165 45.2168C104.099 45.339 104.04 45.5079 103.999 45.7179C103.963 45.8696 104.006 45.9964 104.124 46.1208C104.251 46.2534 104.416 46.3168 104.636 46.3168H104.644C105.033 46.3119 105.36 46.1013 105.651 45.6789L108.099 41.7402ZM114.337 40.2291L109.077 40.2119L113.02 34.0218L114.337 40.2291ZM109.713 39.8651L113.902 39.8824L112.854 34.9327L109.713 39.8651Z" fill="white"/>
<path d="M121.557 45.2737C121.401 45.9863 120.997 46.347 120.342 46.3435C119.686 46.3399 119.435 45.9795 119.592 45.2668L122.323 32.6296C122.477 31.9007 122.869 31.5403 123.494 31.5403C124.179 31.5403 124.442 31.9066 124.285 32.6365L123.246 37.4425L131.38 37.4704L132.422 32.6667C132.578 31.9332 132.983 31.5706 133.641 31.5706C134.297 31.5761 134.544 31.9368 134.385 32.6667L131.657 45.3022C131.503 46.0185 131.097 46.3756 130.438 46.3721C129.788 46.3721 129.539 46.0162 129.692 45.2964L130.978 39.3507L122.84 39.3254L121.557 45.2737Z" fill="white"/>
<path d="M130.452 46.5511H130.437C130.077 46.5479 129.808 46.4416 129.645 46.2401C129.467 46.0191 129.427 45.69 129.518 45.2636L130.759 39.5217L122.984 39.4999L121.726 45.3071C121.556 46.0949 121.083 46.5121 120.353 46.5154H120.341C119.975 46.5154 119.707 46.412 119.547 46.2102C119.37 45.987 119.324 45.6562 119.421 45.2278L122.149 32.5968C122.366 31.5836 122.987 31.3658 123.477 31.3658H123.487C123.874 31.3658 124.154 31.4705 124.32 31.6824C124.504 31.906 124.55 32.24 124.451 32.6729L123.462 37.2703L131.238 37.2943L132.243 32.6258C132.464 31.6167 133.11 31.4016 133.621 31.399H133.639C133.995 31.399 134.263 31.5007 134.426 31.7009C134.605 31.9267 134.649 32.2673 134.553 32.7064L131.826 45.3396C131.652 46.1287 131.181 46.5443 130.452 46.5511ZM122.697 39.1463L131.19 39.1762L129.86 45.3328C129.792 45.6562 129.808 45.8914 129.918 46.0191C130.011 46.1423 130.185 46.1976 130.44 46.2011H130.452C131.018 46.1943 131.345 45.8983 131.482 45.2672L134.208 32.6303C134.28 32.2998 134.263 32.0623 134.154 31.9199C134.058 31.8068 133.884 31.748 133.636 31.7458H133.621C133.057 31.748 132.729 32.0554 132.588 32.7028L131.523 37.6446L123.027 37.618L124.114 32.5968C124.181 32.2745 124.161 32.0382 124.05 31.9001C123.951 31.7795 123.761 31.7162 123.49 31.7162H123.478C122.943 31.7184 122.629 32.0187 122.487 32.6661L119.761 45.3026C119.693 45.623 119.71 45.8544 119.822 45.987C119.911 46.1024 120.09 46.1654 120.341 46.1654H120.353C120.919 46.1608 121.247 45.8671 121.384 45.236L122.697 39.1463Z" fill="white"/>
<path d="M144.589 31.7612L147.265 45.2667C147.279 45.4117 147.263 45.6008 147.215 45.8241C147.17 46.0327 147.031 46.2166 146.801 46.3814C146.573 46.5439 146.323 46.6267 146.06 46.6267C145.574 46.6222 145.291 46.3846 145.206 45.9069L144.477 42.0352L138.166 42.0112L135.763 45.8767C135.443 46.3525 135.054 46.5897 134.605 46.5897C134.337 46.5897 134.126 46.5045 133.966 46.3388C133.807 46.1776 133.751 45.9888 133.795 45.7815C133.843 45.5569 133.907 45.3714 133.985 45.2206L142.487 31.7544L144.589 31.7612ZM142.906 34.5758L139.362 40.1397L144.087 40.1487L142.906 34.5758Z" fill="white"/>
<path d="M146.066 46.8024H146.06C145.488 46.8024 145.133 46.5018 145.034 45.9374L144.332 42.2073L138.264 42.1865L135.911 45.9712C135.552 46.5018 135.117 46.7667 134.602 46.7667C134.288 46.7634 134.035 46.6607 133.842 46.4619C133.644 46.2578 133.567 46.0066 133.621 45.743C133.674 45.5091 133.743 45.3076 133.83 45.1418L142.393 31.5804L144.733 31.5873L144.761 31.729L147.434 45.2302C147.457 45.4158 147.436 45.6176 147.382 45.8616C147.33 46.1161 147.169 46.3374 146.902 46.5249C146.646 46.7069 146.368 46.8024 146.066 46.8024ZM138.067 41.8411L144.625 41.8609L145.38 45.874C145.45 46.274 145.658 46.4521 146.06 46.4521H146.066C146.294 46.4521 146.501 46.3832 146.699 46.2415C146.893 46.1057 147.007 45.9546 147.041 45.7888C147.087 45.5805 147.1 45.4125 147.091 45.2845L144.444 31.9408L142.582 31.9304L134.134 45.317C134.071 45.4389 134.008 45.6153 133.967 45.8191C133.933 45.9712 133.971 46.0963 134.091 46.222C134.219 46.3465 134.386 46.4122 134.604 46.4167H134.615C135.004 46.4122 135.331 46.2025 135.619 45.7788L138.067 41.8411ZM144.304 40.329L139.05 40.3118L142.99 34.1217L144.304 40.329ZM139.686 39.965L143.872 39.979L142.824 35.0339L139.686 39.965Z" fill="white"/>
<path d="M5.4019 51.8733L0.321289 75.5H197.424L202.502 51.8687L5.4019 51.8733Z" fill="#CE4D5D"/>
<path d="M11.171 57.4328C11.2493 57.0733 11.3888 56.7945 11.5971 56.6034C11.8034 56.4124 12.0497 56.3132 12.3435 56.3165L16.744 56.334C18.128 56.334 19.2151 56.465 19.9901 56.723C20.771 56.9768 21.2962 57.3762 21.5682 57.9209C21.8411 58.4691 21.8824 59.1876 21.6874 60.0839C21.4665 61.1098 21.0141 61.9089 20.33 62.4698C21.3985 63.1435 21.7417 64.3813 21.355 66.1641L21.2614 66.5927C21.029 67.6671 20.6534 68.5078 20.1331 69.1158C19.6102 69.7297 18.8881 70.1652 17.9668 70.4287C17.0433 70.6945 15.8259 70.8262 14.3129 70.8226L9.21795 70.8054C8.9219 70.8054 8.71229 70.7062 8.5901 70.5083C8.46953 70.3146 8.44614 70.0394 8.52251 69.6835L11.171 57.4328ZM11.7514 63.8334L10.6527 68.9306L14.7194 68.9397C15.9215 68.9465 16.8096 68.89 17.3864 68.7726C17.9691 68.6563 18.3929 68.4389 18.6632 68.1185C18.9375 67.7951 19.1471 67.2872 19.2979 66.5833L19.3798 66.2297C19.5283 65.5262 19.5446 65.0147 19.4292 64.6995C19.3106 64.3745 19.01 64.1568 18.5404 64.0316C18.0682 63.9095 17.3023 63.8493 16.2429 63.8461L11.7514 63.8334ZM15.5253 61.9655C16.5685 61.9655 17.3643 61.9216 17.9207 61.8169C18.4725 61.7143 18.881 61.5359 19.1471 61.2811C19.411 61.0302 19.5998 60.6516 19.7093 60.1424C19.8172 59.6344 19.7955 59.2614 19.6378 59.0137C19.4812 58.7648 19.1471 58.5877 18.6415 58.4814C18.1326 58.3758 17.3562 58.3238 16.3108 58.3206L12.9457 58.3112L12.157 61.9528L15.5253 61.9655Z" fill="white"/>
<path d="M14.5358 70.9966H14.3158L9.21768 70.9794C8.85924 70.9794 8.59699 70.8514 8.4436 70.6041C8.29834 70.3727 8.26747 70.05 8.35261 69.6461L11.0028 57.3923C11.0866 57.0043 11.2442 56.6924 11.4762 56.4795C11.7131 56.2536 12.0024 56.1418 12.3374 56.1418H12.3491L16.7447 56.1545C18.145 56.1578 19.2554 56.2926 20.0477 56.5507C20.8699 56.8233 21.4353 57.2565 21.7265 57.8453C22.0167 58.4235 22.0596 59.1878 21.8591 60.1195C21.6482 61.0928 21.2325 61.8792 20.6138 62.4541C21.5965 63.1934 21.9062 64.4494 21.526 66.2072L21.4353 66.6297C21.2004 67.7248 20.8065 68.6003 20.2677 69.2314C19.7227 69.8648 18.9685 70.323 18.0137 70.5972C17.1223 70.8549 15.9547 70.9862 14.5358 70.9966ZM12.341 56.4873C12.0898 56.4909 11.8857 56.5715 11.7154 56.7313C11.538 56.901 11.4125 57.145 11.3446 57.4661L8.6948 69.7198C8.62916 70.0292 8.64281 70.2677 8.73998 70.4195C8.82837 70.5579 8.985 70.6317 9.21768 70.6317L14.3181 70.6502C15.8084 70.6538 17.0141 70.5189 17.9182 70.2641C18.8037 70.0074 19.5027 69.5837 20.0015 69.0033C20.5014 68.4196 20.8663 67.5971 21.0918 66.5572L21.1818 66.1299C21.5575 64.4072 21.2475 63.2623 20.2407 62.6185L20.0301 62.4931L20.218 62.3374C20.8663 61.8035 21.3027 61.0304 21.5169 60.0435C21.6979 59.1946 21.6644 58.5073 21.4123 58.0007C21.1679 57.5041 20.6703 57.1288 19.9346 56.8867C19.1826 56.6407 18.1083 56.5113 16.7447 56.5045L12.3442 56.4873H12.341ZM15.008 69.1183H14.7191L10.436 69.1046L11.6118 63.6549L16.2426 63.676C17.3287 63.676 18.0884 63.7368 18.5847 63.8599C19.116 63.9993 19.453 64.2587 19.5914 64.6363C19.7227 64.9908 19.7091 65.5264 19.5479 66.2637L19.4728 66.6228C19.3149 67.3495 19.0871 67.8873 18.7991 68.2272C18.5044 68.5808 18.0403 68.82 17.4252 68.9399C16.8864 69.0549 16.0707 69.1115 15.008 69.1183ZM10.8702 68.7556L14.7214 68.766C15.9017 68.766 16.7905 68.7166 17.3514 68.5977C17.8918 68.4921 18.2899 68.2929 18.532 68.0027C18.7806 67.7066 18.9824 67.2172 19.1274 66.5504L19.2057 66.1932C19.3497 65.5264 19.3692 65.0451 19.2632 64.7572C19.1651 64.4946 18.9132 64.3077 18.4972 64.1998C18.0403 64.0835 17.2812 64.0247 16.2426 64.0201L11.8938 64.0052L10.8702 68.7556ZM15.7886 62.1405H15.5264L11.9445 62.1268L12.806 58.132L16.3151 58.1456C17.3654 58.1492 18.1586 58.2058 18.6773 58.3127C19.2379 58.4326 19.6005 58.6318 19.7871 58.9184C19.9717 59.2086 20.0025 59.6207 19.8794 60.1783C19.7653 60.7161 19.5557 61.1341 19.2704 61.4106C18.9802 61.68 18.5366 61.8792 17.9503 61.9874C17.432 62.0843 16.7262 62.1372 15.7886 62.1405ZM12.3764 61.7801L15.5273 61.7905C16.5591 61.7905 17.3514 61.7479 17.8896 61.6443C18.4076 61.5487 18.7897 61.384 19.027 61.1562C19.2632 60.9329 19.4348 60.5758 19.5375 60.1068C19.6386 59.6509 19.6204 59.3136 19.4936 59.1095C19.3588 58.9044 19.0617 58.7491 18.6022 58.6536C18.1118 58.5544 17.341 58.4982 16.3105 58.4959L13.0894 58.4891L12.3764 61.7801Z" fill="white"/>
<path d="M36.072 65.6093C35.8373 66.7181 35.3801 67.6751 34.7142 68.5045C34.0432 69.3322 33.2034 69.9659 32.1957 70.4091C31.1847 70.8547 30.0756 71.0757 28.8583 71.0711C27.6435 71.062 26.6276 70.8387 25.8149 70.3851C24.9956 69.9405 24.4341 69.2955 24.1205 68.4674C23.8108 67.643 23.7737 66.6755 24.0136 65.57L24.8598 61.6349C25.0974 60.5352 25.552 59.5678 26.2234 58.742C26.8938 57.9162 27.7319 57.2806 28.7387 56.8373C29.7474 56.395 30.8611 56.1737 32.0751 56.1783C33.2912 56.1796 34.3058 56.409 35.1244 56.8568C35.9352 57.3092 36.5039 57.9507 36.8129 58.779C37.1259 59.6035 37.1649 60.5709 36.9234 61.6775L36.072 65.6093ZM31.6683 58.0557C30.343 58.0498 29.2684 58.3631 28.4368 58.9825C27.6091 59.6067 27.0686 60.5189 26.8077 61.7096L25.9861 65.5134C25.732 66.7044 25.8828 67.6118 26.4388 68.2429C26.9962 68.874 27.9392 69.1872 29.2661 69.1905C30.5894 69.1973 31.6637 68.8879 32.4966 68.2624C33.3234 67.6394 33.867 66.7285 34.1234 65.5365L34.9459 61.7363C35.1946 60.5882 35.0542 59.6769 34.5313 59.0068C33.9649 58.3758 33.0124 58.0592 31.6683 58.0557Z" fill="white"/>
<path d="M28.9422 71.246C28.9159 71.246 28.8847 71.2438 28.858 71.2438C27.6157 71.2392 26.5631 71.0017 25.7282 70.5402C24.8781 70.07 24.2828 69.3944 23.9568 68.5306C23.6367 67.6714 23.5942 66.6636 23.8382 65.535L24.688 61.6012C24.9334 60.4749 25.4046 59.4762 26.0886 58.6323C26.7691 57.787 27.6387 57.1296 28.6692 56.6789C29.6955 56.2219 30.8426 56.0088 32.0749 56.002C33.3163 56.0042 34.3666 56.2392 35.2038 56.7045C36.0549 57.1731 36.6499 57.8494 36.9771 58.7151C37.2985 59.5734 37.3388 60.5763 37.0944 61.7127L36.245 65.6445C35.9993 66.7731 35.5297 67.7705 34.8476 68.6122C34.1603 69.4564 33.2942 70.1184 32.2647 70.5698C31.2625 71.0124 30.1423 71.2392 28.9422 71.246ZM31.9943 56.3542C30.8413 56.3578 29.768 56.5765 28.8096 56.9983C27.8298 57.4312 27.0073 58.0519 26.3567 58.8536C25.7061 59.6527 25.2616 60.6026 25.0315 61.6727L24.1814 65.6075C23.9523 66.6704 23.9854 67.6116 24.2863 68.4071C24.5834 69.1903 25.1235 69.8064 25.8985 70.2361C26.683 70.6692 27.6768 70.8869 28.858 70.8925C30.0468 70.896 31.1419 70.6783 32.124 70.25C33.1031 69.8181 33.9263 69.1925 34.5736 68.3967C35.222 67.5953 35.6701 66.6454 35.9005 65.5707L36.7526 61.6389C36.9817 60.5694 36.9482 59.6293 36.6476 58.8419C36.3506 58.0519 35.8118 57.437 35.0354 57.012C34.2503 56.5788 33.2552 56.3578 32.0749 56.3542H31.9943ZM29.3315 69.3645H29.2613C27.8899 69.3609 26.8959 69.0213 26.3073 68.358C25.712 67.6909 25.5495 66.7166 25.817 65.4719L26.6378 61.6727C26.9027 60.4417 27.4776 59.4938 28.3355 58.8432C29.1749 58.2108 30.2749 57.8858 31.5956 57.8826H31.6671C33.0557 57.8858 34.0625 58.2189 34.6614 58.8867C35.222 59.6065 35.3776 60.5763 35.1183 61.7715L34.2942 65.5707C34.0303 66.803 33.4613 67.7507 32.6011 68.4038C31.7613 69.0349 30.6616 69.3576 29.3315 69.3645ZM31.5992 58.2325C30.3519 58.2361 29.3234 58.5367 28.5438 59.1204C27.7538 59.7183 27.2264 60.6026 26.9823 61.7487L26.1624 65.5457C25.9158 66.6773 26.0552 67.5423 26.5709 68.1276C27.0902 68.7116 28.0001 69.0119 29.2636 69.0177C30.544 69.005 31.5956 68.7217 32.3924 68.1228C33.1779 67.5274 33.7076 66.6454 33.9543 65.4996L34.7751 61.6954C35.0088 60.6097 34.8801 59.7391 34.3907 59.1149C33.8691 58.5332 32.9501 58.2325 31.6671 58.2325H31.5992Z" fill="white"/>
<path d="M46.4968 62.5121C47.3707 62.5169 48.1019 62.3385 48.6943 61.971C49.2906 61.6119 49.651 61.129 49.78 60.5349C49.923 59.8752 49.757 59.3439 49.2952 58.9318C48.8321 58.5208 48.1701 58.3112 47.3109 58.3112L43.0362 58.2939C42.6609 58.2939 42.398 58.3541 42.2576 58.471C42.1172 58.591 41.9999 58.8516 41.9131 59.2542L41.828 59.6575C41.6613 60.4209 41.2534 60.7965 40.5993 60.7897C39.9428 60.7897 39.701 60.4095 39.8658 59.6517C40.1238 58.4574 40.5083 57.6203 41.0162 57.1354C41.5241 56.6528 42.2758 56.4156 43.278 56.4179L47.8786 56.4318C48.8171 56.4351 49.6062 56.5998 50.2532 56.9339C50.896 57.2599 51.3591 57.7262 51.6249 58.3238C51.8943 58.9205 51.943 59.6045 51.7757 60.3796C51.4936 61.6935 50.7725 62.7301 49.6094 63.4866C50.4228 64.3387 50.6851 65.4375 50.3926 66.778C50.2246 67.567 49.8687 68.2764 49.3273 68.9108C48.784 69.5441 48.11 70.0358 47.3109 70.3894C46.5092 70.7488 45.6548 70.9214 44.7534 70.9214L40.1479 70.9041C39.1492 70.9041 38.5009 70.6568 38.2006 70.1707C37.9 69.6858 37.8766 68.8484 38.136 67.6531C38.2994 66.893 38.7073 66.5141 39.3637 66.5177C40.0166 66.5177 40.2639 66.8998 40.0981 67.6625L40.0085 68.0655C39.9269 68.4685 39.9279 68.7288 40.0166 68.8484C40.1076 68.966 40.3393 69.0258 40.7146 69.0294L44.9938 69.043C45.8336 69.0453 46.5888 68.8116 47.2524 68.3456C47.9134 67.8799 48.3186 67.2986 48.4671 66.6132C48.6075 65.959 48.4567 65.4271 48.0167 65.0147C47.577 64.6016 46.9333 64.3953 46.089 64.3907L44.0816 64.3836C43.2721 64.3813 42.9361 64.0716 43.0681 63.4405C43.2052 62.813 43.6764 62.503 44.4872 62.5052L46.4968 62.5121Z" fill="white"/>
<path d="M44.8082 71.0951H44.7517L40.1475 71.0776C39.089 71.0753 38.3864 70.805 38.0527 70.2635C37.7245 69.7351 37.6946 68.8704 37.9653 67.6183C38.1921 66.5602 38.8658 66.3515 39.3646 66.3415C39.7191 66.346 39.9768 66.4471 40.1397 66.6486C40.3281 66.8835 40.371 67.2303 40.2732 67.6953L40.1855 68.1009C40.0763 68.603 40.1429 68.7216 40.1569 68.7424C40.1741 68.7583 40.2648 68.8509 40.7165 68.8542L44.9957 68.8668H45.0305C45.8172 68.861 46.5312 68.6387 47.1506 68.1997C47.7817 67.7554 48.1561 67.2234 48.2942 66.5784C48.4268 65.983 48.2942 65.5131 47.9003 65.1365C47.4905 64.7602 46.8854 64.5655 46.0922 64.5655L44.0825 64.5619C43.5688 64.5561 43.2249 64.4375 43.03 64.1957C42.8723 64.001 42.8285 63.7326 42.8987 63.407C43.0049 62.915 43.3604 62.3381 44.4628 62.3313H44.4891L46.4977 62.3381C47.3557 62.3381 48.0443 62.1656 48.6061 61.8224C49.1612 61.4825 49.4897 61.0493 49.608 60.4956C49.737 59.9012 49.5989 59.4326 49.1807 59.0631C48.7501 58.6829 48.1226 58.4885 47.3118 58.4863L43.0326 58.471C42.6085 58.4642 42.4463 58.5444 42.3716 58.6068C42.2965 58.6689 42.1811 58.8418 42.0869 59.2899L42.0008 59.6893C41.7736 60.7396 41.124 60.9642 40.6174 60.9713H40.5988C40.2466 60.9642 39.984 60.8608 39.8238 60.6639C39.6353 60.425 39.5901 60.0858 39.6912 59.6133C39.9573 58.3927 40.3619 57.5139 40.8972 57.006C41.4386 56.4971 42.2435 56.2599 43.2763 56.2401L47.8841 56.2566C48.8437 56.2599 49.6646 56.435 50.3369 56.7737C51.0132 57.1214 51.5016 57.6163 51.786 58.251C52.0703 58.8775 52.122 59.61 51.9485 60.4159C51.6719 61.7071 50.9739 62.747 49.8742 63.5162C50.6203 64.3903 50.852 65.4972 50.5687 66.8133C50.3889 67.6323 50.0181 68.3751 49.4585 69.0257C48.9022 69.6728 48.2055 70.1875 47.3797 70.5505C46.5806 70.9041 45.7155 71.0896 44.8082 71.0951ZM39.3519 66.6915C38.7865 66.696 38.4534 67.0116 38.3071 67.6921C38.0608 68.8311 38.0745 69.636 38.35 70.0819C38.6149 70.5079 39.2193 70.7289 40.1475 70.7335L44.7565 70.7452C45.6489 70.7556 46.4701 70.5772 47.2416 70.2337C48.0144 69.8872 48.6708 69.4056 49.195 68.7989C49.7175 68.1919 50.062 67.4974 50.2242 66.7409C50.5066 65.4475 50.2622 64.4238 49.4839 63.6052L49.339 63.4531L49.5138 63.3378C50.6317 62.6111 51.3366 61.6047 51.6073 60.3435C51.7662 59.61 51.7181 58.9536 51.4656 58.3959C51.216 57.8376 50.7783 57.3953 50.1758 57.0879C49.5586 56.7691 48.7894 56.6099 47.8795 56.603L43.2753 56.5904H43.2295C42.3056 56.5959 41.602 56.8227 41.138 57.2595C40.6544 57.7167 40.2846 58.5343 40.0357 59.687C39.9586 60.0429 39.9768 60.2941 40.0981 60.4462C40.1878 60.5589 40.3597 60.6142 40.5988 60.6142C41.162 60.6369 41.5088 60.3032 41.6586 59.6201L41.7473 59.2152C41.8402 58.7729 41.9705 58.4863 42.1493 58.3361C42.3241 58.1909 42.6338 58.1314 43.0371 58.1174L47.3118 58.1314C48.21 58.135 48.9162 58.3595 49.4137 58.8015C49.9239 59.2574 50.1078 59.8508 49.9525 60.5667C49.8121 61.2105 49.4228 61.7337 48.7917 62.1194C48.1707 62.498 47.395 62.6872 46.4977 62.6872L44.4891 62.6803C43.752 62.6872 43.3582 62.9345 43.2386 63.4759C43.197 63.6982 43.2106 63.8697 43.3042 63.9783C43.4238 64.1268 43.6909 64.2097 44.0825 64.2097L46.0944 64.2188C46.9745 64.2188 47.6641 64.4443 48.1375 64.882C48.6247 65.3415 48.7927 65.9336 48.6373 66.6486C48.482 67.3752 48.0491 67.9962 47.3511 68.4866C46.6726 68.9692 45.8897 69.2136 45.0305 69.2168H44.9957L40.7165 69.2042C40.2742 69.2042 40.0084 69.1245 39.8803 68.9533C39.7513 68.7817 39.7399 68.5006 39.8426 68.0294L39.9265 67.6215C40.0061 67.266 39.9866 67.0116 39.8667 66.8663C39.7744 66.7522 39.6038 66.696 39.3633 66.6915H39.3529H39.3519Z" fill="white"/>
<path d="M61.1282 64.417C60.8646 64.6256 60.5917 64.7303 60.3106 64.7303C60.0171 64.7244 59.7812 64.6221 59.6083 64.4115L57.1021 59.5502L54.852 69.9692C54.6895 70.727 54.2771 71.1091 53.6243 71.1059C52.9714 71.1023 52.7179 70.7452 52.8736 70.0289L55.604 57.3979C55.7597 56.6664 56.1509 56.2992 56.7775 56.3051C57.1645 56.3051 57.457 56.5007 57.6549 56.8864L60.7288 62.6943L66.3326 56.891C66.708 56.5238 67.0755 56.3398 67.4369 56.3398C68.0751 56.3398 68.3146 56.7057 68.158 57.436L65.4272 70.0715C65.2732 70.7842 64.8699 71.1449 64.2135 71.1391C63.5593 71.1391 63.3153 70.7556 63.4787 69.9964L65.7278 59.5782L61.1282 64.417Z" fill="white"/>
<path d="M64.2334 71.314H64.2174C63.8616 71.314 63.6003 71.2113 63.4388 71.0137C63.2513 70.7762 63.2061 70.4317 63.3078 69.9598L65.4276 60.1538L61.2394 64.5575C60.9469 64.7876 60.6392 64.903 60.3272 64.903H60.3135C59.9655 64.903 59.6798 64.7739 59.4761 64.524L57.174 60.0638L55.025 70.007C54.7958 71.0628 54.1485 71.3017 53.6237 71.2851C53.2597 71.2851 52.9994 71.1759 52.8337 70.9731C52.6562 70.7531 52.6101 70.4258 52.7034 69.9907L55.4338 57.361C55.6515 56.3497 56.2748 56.131 56.7606 56.1277H56.7779C57.2361 56.131 57.5841 56.3601 57.8142 56.8079L60.7705 62.4004L66.2076 56.7748C66.6164 56.3682 67.0262 56.1654 67.4295 56.1619H67.4373C67.7863 56.1654 68.043 56.2646 68.2022 56.4647C68.3829 56.6864 68.4268 57.0256 68.3319 57.4712L65.6015 70.1061C65.4322 70.8948 64.9577 71.3107 64.2334 71.314ZM66.0321 59.0067L63.6543 70.0369C63.5746 70.3894 63.5935 70.6472 63.7105 70.7889C63.806 70.9052 63.9744 70.964 64.2174 70.9663C64.8034 70.9731 65.1228 70.6725 65.2609 70.0333L67.9881 57.3987C68.0592 57.0627 68.0417 56.8242 67.9257 56.6838C67.8428 56.571 67.6735 56.5109 67.4373 56.5109H67.4304C67.123 56.5145 66.7948 56.6838 66.4594 57.0201L60.6876 62.9889L57.5022 56.9704C57.3342 56.6367 57.1002 56.479 56.7746 56.479C56.2563 56.4719 55.919 56.7793 55.7782 57.4325L53.0478 70.0632C52.9786 70.3859 52.9994 70.6173 53.1066 70.7567C53.2009 70.872 53.3751 70.9315 53.6269 70.9315C54.1959 70.9315 54.5381 70.6173 54.6821 69.9312L57.0369 59.0375L59.765 64.3284C59.8839 64.4711 60.0718 64.5507 60.3135 64.5575H60.3226C60.5573 64.5507 60.7867 64.4643 61.0148 64.2891L66.0321 59.0067Z" fill="white"/>
<path d="M81.6155 65.7602C81.3764 66.8644 80.9201 67.8283 80.2523 68.6531C79.5832 69.4785 78.7435 70.1141 77.7357 70.5574C76.727 71.0033 75.6136 71.2207 74.4008 71.2207C73.1812 71.2139 72.1689 70.9893 71.3523 70.5369C70.5347 70.0855 69.9738 69.4441 69.6618 68.6193C69.3472 67.7916 69.3128 66.8238 69.551 65.7186L70.3975 61.7855C70.6393 60.6835 71.0946 59.7164 71.7647 58.8939C72.4325 58.0662 73.2677 57.4325 74.2796 56.9859C75.2887 56.5437 76.3988 56.3224 77.6171 56.3272C78.8286 56.3295 79.8454 56.5609 80.6611 57.0054C81.4729 57.4591 82.0406 58.0947 82.3549 58.9264C82.6636 59.7563 82.7016 60.7205 82.4621 61.8225L81.6155 65.7602ZM77.2096 58.2043C75.8827 58.202 74.8061 58.5071 73.9794 59.1359C73.1487 59.7563 72.6067 60.6662 72.3496 61.8547L71.5252 65.662C71.2704 66.8531 71.4202 67.7649 71.9824 68.3915C72.5384 69.0226 73.4773 69.3355 74.8038 69.3381C76.1294 69.3449 77.2028 69.0362 78.0353 68.4119C78.8611 67.7847 79.4067 66.8804 79.6647 65.6851L80.4837 61.8859C80.7326 60.7368 80.5942 59.8291 80.0713 59.1554C79.5013 58.5253 78.5511 58.2065 77.2096 58.2043Z" fill="white"/>
<path d="M74.4745 71.3925H74.3972C73.1555 71.3856 72.1019 71.1552 71.2635 70.6944C70.4147 70.22 69.8206 69.5473 69.496 68.6802C69.1723 67.8278 69.1317 66.8133 69.3761 65.685L70.2272 61.7499C70.4702 60.6232 70.9447 59.6272 71.6216 58.7823C72.3047 57.9403 73.1753 57.2802 74.2071 56.8288C75.233 56.3749 76.3792 56.1575 77.6157 56.1516C78.8552 56.1552 79.9064 56.3921 80.7439 56.8542C81.5914 57.3192 82.1858 58 82.5127 58.8638C82.8387 59.723 82.8777 60.7295 82.6336 61.8623L81.7812 65.7977C81.5385 66.9228 81.0685 67.9192 80.3858 68.7618C79.7014 69.6061 78.8331 70.2671 77.8036 70.7195C76.7984 71.1621 75.6766 71.3856 74.4745 71.3925ZM77.5296 56.5006C76.3779 56.5042 75.3045 56.7229 74.3478 57.148C73.37 57.5808 72.5442 58.2051 71.8995 59.0065C71.2476 59.8023 70.7998 60.7535 70.569 61.8224L69.7205 65.7574C69.4888 66.8237 69.5259 67.7658 69.8229 68.5568C70.119 69.3435 70.6613 69.9574 71.4315 70.3857C72.2205 70.8189 73.2143 71.0389 74.3985 71.0457C75.5648 71.0295 76.6808 70.828 77.6632 70.3997C78.6387 69.9665 79.4619 69.3435 80.1138 68.5408C80.7634 67.7417 81.2089 66.7938 81.4403 65.7249L82.2904 61.7899C82.5195 60.7227 82.4851 59.7864 82.1858 58.9883C81.8884 58.2051 81.3493 57.5912 80.571 57.1616C79.7891 56.7297 78.7931 56.5042 77.6134 56.5006H77.5296ZM74.8704 69.5141H74.8015C73.4298 69.5118 72.4347 69.1742 71.8475 68.5077C71.2508 67.837 71.0851 66.8666 71.3568 65.6262L72.1757 61.8224C72.4405 60.5914 73.0115 59.6402 73.872 58.9928C74.7264 58.3504 75.8609 58.0358 77.2085 58.0322C78.5926 58.0322 79.6013 58.3731 80.1966 59.0364C80.7634 59.7585 80.9106 60.7295 80.6552 61.9179L79.8317 65.7249C79.5691 66.954 78.9969 67.9039 78.1412 68.5499C77.2937 69.1833 76.1995 69.5073 74.8704 69.5141ZM77.1416 58.3799C75.8917 58.3858 74.8626 58.6864 74.0816 59.2749C73.2926 59.868 72.7642 60.7535 72.5179 61.8961L71.6967 65.6986C71.4536 66.8237 71.592 67.692 72.1078 68.2763C72.6284 68.8613 73.536 69.1583 74.8024 69.1674C76.0854 69.1615 77.1335 68.8713 77.9257 68.2688C78.7206 67.6725 79.2432 66.7938 79.4895 65.6525L80.3143 61.8487C80.5434 60.7604 80.418 59.8911 79.9295 59.2645C79.4079 58.6828 78.4899 58.3822 77.2085 58.3799H77.1416Z" fill="white"/>
<path d="M93.6506 65.2622L92.5831 70.2034C92.5171 70.5008 92.3676 70.7484 92.119 70.9444C91.8782 71.1342 91.5961 71.231 91.2838 71.231C90.9881 71.2278 90.7727 71.1319 90.6368 70.9327C90.4984 70.7416 90.4607 70.4937 90.5227 70.1934L91.5913 65.2519H91.4323C90.7428 65.2519 90.123 65.4244 89.5657 65.7643C89.0097 66.1004 88.5489 66.6015 88.193 67.2543C87.9662 67.645 87.6448 68.2253 87.2292 68.9981C86.8295 69.6991 86.3319 70.2395 85.7434 70.6298C85.1503 71.0159 84.5078 71.2034 83.804 71.2034C83.4309 71.2034 83.1534 71.1183 82.9717 70.9444C82.7907 70.7748 82.7328 70.547 82.7917 70.2636C82.9288 69.6357 83.399 69.3215 84.2118 69.325C84.2856 69.3215 84.3834 69.2721 84.4906 69.1707C84.5985 69.0651 84.7061 68.9159 84.8049 68.7216C85.1887 68.0547 85.4753 67.5205 85.6687 67.1136C85.9797 66.4773 86.4528 65.8426 87.0852 65.2148C87.7199 64.5918 88.4049 64.1323 89.1393 63.8363C88.868 63.4356 88.5684 62.7895 88.246 61.9108C87.8889 60.97 87.5769 60.2375 87.3166 59.716C87.0657 59.2243 86.7693 58.9591 86.4323 58.926C86.0602 58.9097 85.7908 58.8197 85.6154 58.6562C85.4395 58.4941 85.384 58.2624 85.4496 57.9618C85.5835 57.3482 86.0199 57.0453 86.7693 57.0476C87.3777 57.0522 87.935 57.2465 88.4442 57.6361C88.9509 58.0287 89.3828 58.5964 89.7363 59.338C89.9804 59.8771 90.2442 60.4965 90.5286 61.2014C90.7853 61.8877 91.0216 62.4119 91.2448 62.7723C91.4359 63.1753 91.6419 63.3755 91.8551 63.3755H91.9955L93.1186 58.1899C93.1956 57.848 93.3432 57.5796 93.5755 57.3849C93.805 57.1929 94.0757 57.0912 94.3876 57.0934C95.0681 57.097 95.333 57.4642 95.1763 58.1931L94.0539 63.3826H94.1966C94.3863 63.3826 94.6847 63.1847 95.1003 62.7824C95.4162 62.4681 95.8858 61.9466 96.5136 61.2212C97.2068 60.3896 97.808 59.702 98.3123 59.1677C98.818 58.6322 99.3698 58.1636 99.9729 57.7652C100.677 57.3193 101.323 57.097 101.92 57.097C102.291 57.1016 102.568 57.1854 102.748 57.3596C102.933 57.5299 102.993 57.758 102.933 58.0391C102.87 58.3257 102.72 58.5467 102.481 58.7128C102.244 58.874 101.927 58.9659 101.538 58.9753C101.171 59.0052 100.755 59.2737 100.285 59.7767C99.7919 60.2661 99.168 60.9895 98.4183 61.9433C97.7365 62.7756 97.1619 63.4161 96.692 63.8616C97.1285 64.0702 97.5109 64.3569 97.8265 64.7127C98.1479 65.0767 98.3643 65.4634 98.4781 65.8781C98.7374 66.7019 98.8723 67.5159 98.8849 68.3219C98.8755 68.6686 98.9018 68.9257 98.971 69.1073C99.0435 69.2815 99.1413 69.3712 99.2658 69.3712C99.6239 69.378 99.9005 69.4609 100.084 69.6357C100.277 69.8063 100.34 70.0354 100.279 70.3156C100.143 70.9444 99.6538 71.2528 98.8144 71.2528C98.1131 71.2505 97.5522 71.0549 97.1262 70.6646C96.7034 70.2762 96.4593 69.7316 96.3914 69.029C96.3583 68.7606 96.3349 68.5591 96.3349 68.4236C96.2474 67.7541 96.1532 67.229 96.056 66.8491C95.9595 66.4666 95.7802 66.127 95.5172 65.8264C95.1305 65.4566 94.5628 65.2645 93.8163 65.2622H93.6506Z" fill="white"/>
<path d="M98.8414 71.4283H98.8115C98.0696 71.4283 97.4628 71.2109 97.0069 70.7904C96.5552 70.3819 96.2871 69.7875 96.2169 69.0447C96.1776 68.7704 96.1626 68.567 96.1603 68.424C96.0719 67.7838 95.9806 67.2596 95.8887 66.892C95.7977 66.5398 95.6264 66.2197 95.3866 65.9444C95.0431 65.6084 94.5124 65.4401 93.8111 65.4365H93.7926L92.7517 70.2402C92.6792 70.5766 92.5028 70.8606 92.2275 71.077C91.9559 71.2938 91.6403 71.3988 91.2971 71.4043H91.2832C90.9286 71.3988 90.6628 71.2789 90.4886 71.038C90.3229 70.8011 90.279 70.5074 90.3537 70.1574L91.3741 65.431C90.7466 65.4365 90.1708 65.599 89.6564 65.9123C89.1273 66.2392 88.6818 66.7172 88.3396 67.3415C88.1082 67.7477 87.7848 68.3317 87.3838 69.0817C86.9659 69.8116 86.4453 70.3819 85.8363 70.7755C85.2293 71.1742 84.5533 71.3757 83.8312 71.3825H83.8023C83.3831 71.3757 83.063 71.2717 82.8511 71.0702C82.6935 70.9207 82.53 70.6526 82.6207 70.224C82.7244 69.7378 83.0825 69.1565 84.179 69.1496H84.2102C84.2102 69.1496 84.2573 69.1483 84.3687 69.0447C84.461 68.9559 84.5592 68.8165 84.6521 68.6381C85.0427 67.955 85.3212 67.4302 85.5126 67.035C85.8314 66.3831 86.3163 65.7267 86.9601 65.0933C87.5531 64.5084 88.1992 64.0628 88.88 63.7564C88.632 63.3408 88.3711 62.7535 88.0809 61.9668C87.7283 61.0419 87.4173 60.3097 87.157 59.7891C86.9383 59.3595 86.6871 59.1243 86.4154 59.1051C86.0124 59.0856 85.7005 58.9757 85.4964 58.785C85.3433 58.6397 85.1795 58.3749 85.2787 57.9222C85.3765 57.4477 85.721 56.8787 86.7414 56.8732H86.7664C87.4124 56.8732 88.0139 57.085 88.5482 57.4997C89.0782 57.9036 89.5306 58.4971 89.8923 59.2637C90.1315 59.8005 90.3999 60.4319 90.6855 61.1352C90.9413 61.8183 91.1775 62.3363 91.3904 62.6798C91.5529 63.0171 91.7151 63.1991 91.8558 63.2013L92.9473 58.1503C93.0312 57.7727 93.2044 57.4672 93.4621 57.2485C93.7224 57.0285 94.023 56.9066 94.3857 56.9193C94.7659 56.9226 95.0493 57.0285 95.2163 57.2404C95.3957 57.4672 95.4409 57.7977 95.3486 58.2332L94.2752 63.1923C94.3834 63.1494 94.5943 63.0275 94.9742 62.6564C95.2865 62.3535 95.7561 61.8319 96.3771 61.1053C97.0703 60.2759 97.6796 59.5877 98.1826 59.0485C98.6964 58.5062 99.2651 58.0245 99.8744 57.6157C100.607 57.153 101.302 56.9193 101.92 56.9226C102.335 56.9226 102.658 57.0285 102.87 57.23C103.098 57.4477 103.174 57.7343 103.1 58.0778C103.031 58.4048 102.856 58.666 102.58 58.861C102.312 59.0381 101.965 59.1373 101.54 59.1545C101.231 59.1762 100.851 59.4252 100.417 59.8961C99.9216 60.3822 99.2989 61.1053 98.5512 62.0519C97.9526 62.789 97.4284 63.3801 96.9861 63.8198C97.3527 64.0235 97.6783 64.2848 97.9581 64.5981C98.2934 64.9773 98.5271 65.3943 98.6444 65.8362C98.907 66.6642 99.05 67.5063 99.0591 68.318C99.05 68.6453 99.075 68.8867 99.1351 69.0424C99.1628 69.1103 99.2086 69.1987 99.2651 69.1987C99.6684 69.2036 99.9827 69.3014 100.204 69.5042C100.438 69.7219 100.523 70.0134 100.449 70.3549C100.343 70.8401 99.9781 71.4215 98.8414 71.4283ZM93.5105 65.0865H93.8111C94.6057 65.0898 95.2195 65.2984 95.6378 65.7027C95.928 66.0309 96.121 66.3968 96.226 66.8024C96.3238 67.1894 96.4197 67.7237 96.5093 68.4041C96.5129 68.5494 96.5324 68.7372 96.5649 69.0057C96.6303 69.6758 96.8506 70.1746 97.2454 70.5373C97.6354 70.8931 98.1599 71.0747 98.8115 71.077C99.5634 71.0842 99.9918 70.8184 100.106 70.2802C100.154 70.0579 100.109 69.8935 99.9667 69.7622C99.8137 69.6192 99.5748 69.55 99.2651 69.55C99.1247 69.55 98.9323 69.4843 98.8105 69.1701C98.7286 68.9686 98.6964 68.6852 98.7078 68.3157C98.6964 67.543 98.5616 66.7403 98.3094 65.9331C98.2012 65.5392 97.9948 65.1681 97.6955 64.8321C97.3916 64.4934 97.0287 64.2182 96.6153 64.019L96.3862 63.9085L96.5705 63.7356C97.0322 63.2969 97.6081 62.6564 98.2759 61.8319C99.0315 60.8775 99.6661 60.145 100.164 59.6556C100.661 59.1187 101.104 58.834 101.521 58.8009C101.883 58.7918 102.171 58.7089 102.38 58.5672C102.584 58.4314 102.705 58.2468 102.762 58.005C102.808 57.7772 102.765 57.6157 102.63 57.4848C102.481 57.3453 102.241 57.2761 101.915 57.2761H101.897C101.348 57.2797 100.729 57.4906 100.066 57.9131C99.4806 58.3034 98.9324 58.7639 98.4384 59.2893C97.9386 59.8213 97.3374 60.509 96.6465 61.3334C96.0063 62.076 95.5419 62.591 95.2208 62.9089C94.7636 63.3499 94.4386 63.5549 94.2004 63.5582H94.1946L93.8387 63.5549L95.0044 58.1571C95.0746 57.8335 95.0561 57.5985 94.9407 57.4581C94.8419 57.3363 94.6531 57.2729 94.3834 57.2729C94.1153 57.2693 93.8836 57.3476 93.6847 57.5202C93.4887 57.685 93.3539 57.9199 93.2928 58.2264L92.1411 63.5481H91.8558C91.5643 63.5481 91.3088 63.32 91.084 62.8455C90.8675 62.4919 90.6244 61.9668 90.3641 61.2609C90.0762 60.5661 89.8149 59.9435 89.5764 59.4112C89.2368 58.6985 88.8212 58.148 88.3373 57.775C87.855 57.4042 87.3435 57.2267 86.7664 57.2267H86.7414C86.0908 57.2267 85.7323 57.4744 85.6209 57.9995C85.5689 58.2332 85.6056 58.408 85.7323 58.527C85.8786 58.6628 86.1099 58.7375 86.4385 58.7512C86.8486 58.7918 87.1914 59.0856 87.4725 59.637C87.7351 60.1645 88.0494 60.907 88.4075 61.8482C88.7247 62.7165 89.0204 63.3499 89.2804 63.7356L89.4074 63.9189L89.2033 63.9982C88.4952 64.2848 87.8216 64.7339 87.2077 65.341C86.5906 65.948 86.1252 66.5687 85.8292 67.1894C85.6335 67.5924 85.3492 68.1208 84.9608 68.8074C84.8494 69.0148 84.7317 69.1828 84.6073 69.2946C84.4542 69.4431 84.318 69.4974 84.179 69.5042C83.4764 69.5042 83.078 69.7645 82.9642 70.2965C82.9155 70.52 82.9522 70.688 83.0929 70.8183C83.2378 70.9597 83.479 71.028 83.8056 71.028H83.8312C84.4808 71.028 85.0944 70.8401 85.6462 70.4817C86.2081 70.1135 86.6916 69.5861 87.0764 68.9156C87.4794 68.1624 87.8021 67.5751 88.0344 67.1699C88.4052 66.4927 88.8891 65.9711 89.4731 65.6117C90.0567 65.2558 90.7073 65.0797 91.4307 65.0797H91.8122L90.695 70.2331C90.643 70.4817 90.6673 70.6789 90.7788 70.833C90.8828 70.9782 91.0462 71.052 91.2854 71.052H91.2971C91.5656 71.052 91.7979 70.9701 92.0111 70.8011C92.224 70.6374 92.3565 70.4277 92.4118 70.1629L93.5105 65.0865Z" fill="white"/>
<path d="M104.888 70.196C104.735 70.9135 104.332 71.2707 103.679 71.2707C103.02 71.2671 102.773 70.9035 102.927 70.1937L105.656 57.5595C105.814 56.8283 106.204 56.464 106.826 56.464C107.514 56.4666 107.779 56.8364 107.62 57.5631L106.579 62.3733L114.716 62.4032L115.754 57.5903C115.914 56.8605 116.319 56.4965 116.974 56.5001C117.632 56.5001 117.876 56.8708 117.72 57.5975L114.991 70.233C114.835 70.9496 114.43 71.3032 113.776 71.3009C113.123 71.3009 112.872 70.9402 113.025 70.2262L114.314 64.2779L106.175 64.2493L104.888 70.196Z" fill="white"/>
<path d="M113.793 71.4759C113.786 71.4759 113.781 71.4759 113.776 71.4792C113.413 71.4759 113.147 71.3736 112.983 71.1718C112.806 70.9508 112.761 70.6212 112.856 70.1884L114.097 64.453L106.316 64.4279L105.062 70.2378C104.89 71.0223 104.418 71.4399 103.691 71.4473H103.68C103.316 71.4425 103.046 71.3434 102.886 71.1396C102.705 70.915 102.664 70.5881 102.757 70.1562L105.486 57.5216C105.707 56.5012 106.337 56.2803 106.825 56.2929C107.21 56.2929 107.491 56.4024 107.659 56.6143C107.841 56.8376 107.886 57.1713 107.794 57.6045L106.798 62.196L114.577 62.2263L115.586 57.5574C115.802 56.5441 116.451 56.3296 116.959 56.3274H116.97C117.333 56.3274 117.596 56.432 117.762 56.6293C117.943 56.8584 117.986 57.1947 117.889 57.6367L115.158 70.27C114.992 71.06 114.521 71.4759 113.793 71.4759ZM106.033 64.0744L114.529 64.1043L113.199 70.2644C113.129 70.5845 113.147 70.8159 113.255 70.9544C113.35 71.0668 113.522 71.1256 113.776 71.1256H113.792C114.356 71.1256 114.683 70.8263 114.82 70.1975L117.549 57.5642C117.62 57.2314 117.599 56.9906 117.488 56.8548C117.399 56.7349 117.224 56.6761 116.974 56.6728C116.394 56.6904 116.07 56.977 115.927 57.6312L114.856 62.575L106.364 62.546L107.446 57.5285C107.518 57.2038 107.498 56.9698 107.386 56.8308C107.287 56.7063 107.1 56.6429 106.825 56.6407H106.816C106.279 56.6465 105.97 56.9503 105.827 57.5974L103.099 70.2323C103.028 70.5511 103.046 70.7825 103.155 70.9173C103.249 71.0337 103.426 71.0961 103.68 71.0961H103.691C104.256 71.0925 104.583 70.7954 104.72 70.1621L106.033 64.0744Z" fill="white"/>
<path d="M131.172 65.9198C130.936 67.025 130.482 67.9892 129.811 68.815C129.143 69.6391 128.302 70.2738 127.296 70.7222C126.285 71.1655 125.173 71.3855 123.958 71.3829C122.741 71.3761 121.728 71.148 120.915 70.6988C120.095 70.251 119.533 69.6059 119.222 68.7782C118.908 67.9535 118.874 66.9896 119.11 65.8792L119.959 61.9477C120.2 60.8454 120.652 59.8783 121.321 59.0557C121.991 58.2303 122.831 57.5934 123.839 57.1511C124.847 56.7055 125.959 56.481 127.174 56.4878C128.39 56.4901 129.407 56.7228 130.224 57.1706C131.035 57.62 131.598 58.2612 131.911 59.0882C132.226 59.9182 132.262 60.8824 132.023 61.9867L131.172 65.9198ZM126.768 58.3662C125.443 58.3626 124.368 58.669 123.541 59.2965C122.711 59.9205 122.169 60.8327 121.91 62.0205L121.087 65.8204C120.828 67.0149 120.978 67.9223 121.541 68.5534C122.096 69.1809 123.039 69.4977 124.365 69.5049C125.689 69.5049 126.765 69.1981 127.593 68.5742C128.423 67.9466 128.967 67.0423 129.223 65.847L130.044 62.0478C130.292 60.9019 130.154 59.9874 129.631 59.3209C129.063 58.6862 128.109 58.373 126.768 58.3662Z" fill="white"/>
<path d="M124.038 71.554H123.958C122.718 71.5517 121.662 71.3168 120.825 70.8514C119.977 70.3815 119.381 69.7066 119.057 68.8428C118.735 67.9852 118.695 66.9748 118.937 65.8465L119.789 61.9115C120.028 60.7848 120.499 59.7891 121.186 58.9438C121.873 58.0937 122.739 57.4418 123.767 56.9904C124.79 56.5341 125.939 56.3284 127.176 56.3132C128.411 56.3167 129.467 56.5507 130.304 57.0158C131.155 57.487 131.75 58.1616 132.075 59.0231C132.396 59.8846 132.438 60.8911 132.195 62.021L131.344 65.9557C131.101 67.0798 130.63 68.0807 129.947 68.926C129.263 69.7644 128.394 70.4264 127.365 70.8813C126.359 71.3236 125.242 71.5472 124.038 71.554ZM127.095 56.6622C125.937 56.668 124.865 56.8867 123.909 57.306C122.932 57.7356 122.107 58.3634 121.46 59.1648C120.806 59.9639 120.364 60.9151 120.129 61.9839L119.279 65.919C119.049 66.9856 119.088 67.9264 119.385 68.7154C119.679 69.5054 120.22 70.1144 120.996 70.5473C121.782 70.9792 122.777 71.2037 123.962 71.2073C125.133 71.2004 126.242 70.9895 127.224 70.5599C128.202 70.128 129.026 69.5054 129.671 68.705C130.324 67.9033 130.77 66.9531 131.001 65.8855L131.852 61.9472C132.081 60.8842 132.046 59.9444 131.748 59.1499C131.454 58.3667 130.911 57.7515 130.137 57.3232C129.351 56.8867 128.354 56.668 127.174 56.6622H127.095ZM124.429 69.6789H124.364C122.991 69.6721 121.998 69.3325 121.409 68.6693C120.811 67.9988 120.647 67.0314 120.917 65.7832L121.734 61.9839C122.002 60.7529 122.574 59.8017 123.433 59.158C124.275 58.5256 125.37 58.2009 126.695 58.1902H126.768C128.155 58.1938 129.161 58.5337 129.759 59.1979C130.32 59.92 130.474 60.8875 130.216 62.083L129.392 65.8855C129.13 67.1156 128.559 68.0658 127.699 68.7118C126.855 69.3449 125.755 69.6688 124.429 69.6789ZM126.697 58.5415C125.451 58.5509 124.424 58.8483 123.644 59.4365C122.853 60.0295 122.327 60.9105 122.079 62.0564L121.261 65.8569C121.015 66.9892 121.153 67.8562 121.666 68.4379C122.19 69.0228 123.099 69.3231 124.364 69.3254C125.634 69.3198 126.695 69.0319 127.488 68.4353C128.28 67.8399 128.807 66.9531 129.051 65.8095L129.872 62.0067C130.108 60.9219 129.98 60.0526 129.489 59.4264C128.969 58.8447 128.049 58.5438 126.768 58.5415H126.697Z" fill="white"/>
<path d="M138.962 71.231C137.434 71.2242 136.269 71.0825 135.462 70.8118C134.653 70.5398 134.119 70.0988 133.861 69.4872C133.605 68.876 133.594 68.0349 133.826 66.9583L135.118 60.9665C135.348 59.9068 135.711 59.0755 136.208 58.4639C136.706 57.8549 137.396 57.4149 138.274 57.1373C139.152 56.8631 140.286 56.7308 141.67 56.7386L145.389 56.748C146.305 56.7552 146.942 56.9762 147.29 57.4253C147.638 57.8731 147.71 58.5675 147.507 59.5074C147.326 60.3399 146.908 60.7592 146.257 60.7556C145.943 60.7556 145.72 60.65 145.597 60.4426C145.471 60.2308 145.445 59.9392 145.527 59.5675C145.609 59.1941 145.601 58.9465 145.502 58.8184C145.407 58.6884 145.176 58.6264 144.817 58.6264L141.265 58.6169C140.186 58.6137 139.388 58.6689 138.866 58.7875C138.34 58.9039 137.949 59.132 137.69 59.468C137.43 59.7989 137.223 60.3191 137.073 61.0159L135.798 66.9226C135.643 67.6356 135.631 68.1607 135.751 68.4863C135.876 68.8172 136.204 69.0427 136.743 69.1603C137.278 69.2825 138.152 69.3443 139.367 69.3514L142.498 69.3586C142.861 69.3618 143.112 69.2952 143.266 69.174C143.419 69.045 143.534 68.7986 143.613 68.4233C143.696 68.0512 143.843 67.7642 144.06 67.554C144.277 67.3454 144.54 67.2417 144.852 67.2417C145.504 67.2599 145.74 67.6814 145.558 68.5198C145.361 69.4414 144.99 70.131 144.451 70.5769C143.909 71.0192 143.18 71.2402 142.261 71.2402L138.962 71.231Z" fill="white"/>
<path d="M142.311 71.4121H142.26L138.961 71.4053C137.424 71.3981 136.225 71.2532 135.405 70.9789C134.552 70.6933 133.979 70.213 133.7 69.5568C133.434 68.9128 133.414 68.0285 133.654 66.923L134.948 60.9311C135.181 59.8509 135.559 58.9823 136.073 58.3528C136.594 57.7181 137.315 57.256 138.222 56.973C139.114 56.6922 140.275 56.5505 141.669 56.5609L145.388 56.5768C146.361 56.5768 147.044 56.828 147.425 57.3194C147.806 57.8078 147.89 58.5578 147.676 59.5432C147.43 60.6871 146.774 60.9311 146.265 60.9337H146.253C145.876 60.9311 145.604 60.7953 145.444 60.535C145.292 60.2873 145.262 59.951 145.357 59.5341C145.456 59.0885 145.385 58.9537 145.362 58.9264C145.341 58.8971 145.238 58.8019 144.816 58.8019L141.264 58.7879C140.21 58.7879 139.415 58.8422 138.902 58.9572C138.417 59.0655 138.066 59.2702 137.828 59.5711C137.585 59.8808 137.39 60.3797 137.242 61.0566L135.966 66.9551C135.823 67.6359 135.808 68.1302 135.914 68.4237C136.016 68.6918 136.305 68.8832 136.778 68.9927C137.297 69.1077 138.171 69.1711 139.366 69.1744L142.497 69.1825C142.803 69.1812 143.038 69.1318 143.153 69.0372C143.238 68.9693 143.355 68.798 143.444 68.3856C143.531 67.9814 143.696 67.659 143.937 67.4276C144.187 67.1865 144.511 67.0773 144.852 67.0646C145.191 67.0741 145.442 67.1833 145.602 67.3847C145.804 67.6428 145.844 68.0253 145.728 68.5569C145.523 69.5143 145.127 70.2396 144.561 70.7095C144 71.1713 143.241 71.4085 142.311 71.4121ZM138.961 71.0527L142.26 71.0586C143.126 71.0758 143.829 70.8545 144.335 70.4378C144.845 70.0255 145.197 69.3658 145.388 68.4844C145.477 68.0656 145.456 67.7718 145.326 67.5989C145.233 67.4806 145.075 67.4205 144.848 67.4172H144.842C144.582 67.4172 144.365 67.5034 144.181 67.6785C143.991 67.8605 143.856 68.124 143.785 68.4604C143.696 68.8763 143.563 69.1503 143.376 69.3056C143.191 69.4646 142.891 69.5234 142.497 69.5373L139.366 69.527C138.122 69.5201 137.256 69.4577 136.7 69.3323C136.107 69.1929 135.734 68.9326 135.588 68.5501C135.45 68.1861 135.466 67.6428 135.63 66.8827L136.899 60.9795C137.061 60.2471 137.272 59.7164 137.55 59.3592C137.833 58.993 138.267 58.7385 138.824 58.6173C139.365 58.4945 140.176 58.4321 141.264 58.4412L144.82 58.4516C145.239 58.4516 145.507 58.5367 145.642 58.7132C145.774 58.887 145.792 59.1701 145.697 59.6069C145.627 59.9338 145.642 60.1814 145.746 60.3517C145.837 60.5051 146.004 60.5776 146.256 60.5847H146.263C146.823 60.5776 147.173 60.2185 147.336 59.472C147.525 58.5864 147.464 57.9404 147.152 57.5339C146.84 57.1309 146.243 56.9268 145.388 56.9268L141.669 56.9096C140.296 56.9063 139.184 57.0409 138.327 57.3093C137.485 57.5673 136.819 57.997 136.344 58.5705C135.863 59.1646 135.511 59.9764 135.29 61.0039L133.996 66.9957C133.772 68.0285 133.783 68.8471 134.025 69.4207C134.259 69.9806 134.763 70.3917 135.52 70.6497C136.299 70.91 137.462 71.0459 138.961 71.0527Z" fill="white"/>
<path d="M159.79 56.7974C160.553 56.7974 160.869 57.1106 160.732 57.7417C160.599 58.3628 160.149 58.6757 159.383 58.6734L156.063 58.663L153.529 70.4016C153.462 70.6987 153.305 70.9466 153.054 71.1387C152.799 71.3334 152.504 71.4289 152.159 71.4289C151.816 71.4221 151.573 71.3356 151.424 71.155C151.275 70.9775 151.239 70.7221 151.306 70.3958L153.843 58.6598L150.474 58.6439C150.119 58.6439 149.854 58.5574 149.69 58.3855C149.528 58.2129 149.473 57.9861 149.534 57.7027C149.598 57.422 149.746 57.1938 149.985 57.0219C150.222 56.8507 150.524 56.7655 150.883 56.7688L159.79 56.7974Z" fill="white"/>
<path d="M152.169 71.6012H152.16C151.762 71.6012 151.471 71.4884 151.29 71.2671C151.106 71.0461 151.055 70.7423 151.137 70.3634L153.625 58.8308L150.475 58.8181C150.067 58.8181 149.766 58.7135 149.566 58.5048C149.42 58.3599 149.273 58.0924 149.362 57.6654C149.437 57.3431 149.61 57.0746 149.884 56.88C150.15 56.6856 150.497 56.5999 150.884 56.5908L159.79 56.6233C160.268 56.6233 160.588 56.7347 160.773 56.9661C160.934 57.1643 160.976 57.4373 160.902 57.775C160.8 58.2631 160.451 58.8448 159.406 58.8483H159.387L156.202 58.8376L153.703 70.4417C153.625 70.7777 153.446 71.0621 153.158 71.2775C152.879 71.4907 152.549 71.6012 152.169 71.6012ZM150.867 56.9421C150.548 56.9421 150.295 57.0158 150.087 57.1643C149.884 57.3096 149.756 57.5007 149.706 57.7425C149.657 57.9625 149.695 58.1354 149.813 58.2608C149.946 58.3989 150.17 58.4714 150.475 58.4714L154.062 58.4805L151.479 70.431C151.419 70.7098 151.446 70.9045 151.56 71.0461C151.674 71.182 151.876 71.2535 152.16 71.2535H152.166C152.474 71.2512 152.726 71.1683 152.945 71.001C153.169 70.832 153.301 70.6256 153.359 70.3657L155.922 58.4879L159.387 58.498C160.052 58.4948 160.444 58.2504 160.562 57.7035C160.612 57.4704 160.59 57.2992 160.501 57.1861C160.386 57.0412 160.147 56.9733 159.789 56.9733L150.884 56.9421H150.867Z" fill="white"/>
<path d="M163.639 64.1039L162.49 69.4256L171.419 69.4555C171.792 69.4555 172.063 69.5384 172.233 69.7018C172.397 69.8688 172.444 70.1152 172.375 70.4424C172.316 70.7268 172.168 70.9445 171.93 71.1021C171.693 71.2542 171.386 71.3335 171.014 71.3335L161.054 71.3039C160.761 71.3039 160.55 71.2012 160.428 71.0066C160.308 70.8155 160.286 70.5344 160.365 70.1808L163.008 57.9242C163.085 57.567 163.228 57.2908 163.429 57.0984C163.639 56.9073 163.891 56.8082 164.183 56.8115L174.144 56.8417C174.522 56.8417 174.789 56.9246 174.956 57.0926C175.126 57.257 175.172 57.505 175.101 57.8319C175.041 58.1163 174.89 58.3327 174.656 58.4887C174.418 58.644 174.114 58.7233 173.739 58.7233L164.807 58.6898L164.045 62.2252L170.101 62.2463C170.521 62.2463 170.826 62.3279 171.015 62.4959C171.207 62.6571 171.267 62.906 171.194 63.2355C171.068 63.8309 170.566 64.1279 169.695 64.1246L163.639 64.1039Z" fill="white"/>
<path d="M171.036 71.5072H171.014L161.054 71.475C160.696 71.475 160.437 71.3493 160.281 71.1007C160.131 70.8638 160.102 70.5502 160.191 70.1378L162.836 57.887C162.921 57.4977 163.082 57.1902 163.31 56.9689C163.55 56.748 163.839 56.6352 164.173 56.6352H164.184L174.146 56.6651C174.559 56.6674 174.877 56.7678 175.075 56.9654C175.288 57.174 175.355 57.4772 175.272 57.8698C175.204 58.1931 175.025 58.4547 174.75 58.6321C174.487 58.8083 174.137 58.8934 173.738 58.8967L164.946 58.8671L164.261 62.0489L170.101 62.0694C170.563 62.0729 170.91 62.1688 171.127 62.3596C171.374 62.5705 171.451 62.8747 171.369 63.2672C171.219 63.9539 170.645 64.2853 169.694 64.298L163.782 64.2749L162.707 69.2558L171.42 69.2785C171.846 69.2785 172.15 69.378 172.355 69.5795C172.567 69.7881 172.633 70.0884 172.548 70.4764C172.475 70.8049 172.303 71.0613 172.026 71.2459C171.767 71.4185 171.435 71.5036 171.036 71.5072ZM164.175 56.9852C163.929 56.9852 163.725 57.0648 163.55 57.227C163.375 57.395 163.247 57.6393 163.18 57.9617L160.53 70.2174C160.466 70.5261 160.479 70.762 160.578 70.9128C160.665 71.0545 160.821 71.1214 161.054 71.1214L171.015 71.1572C171.358 71.1608 171.626 71.0893 171.833 70.9534C172.033 70.8244 172.155 70.6389 172.205 70.4049C172.26 70.1378 172.228 69.949 172.109 69.8303C171.976 69.6945 171.747 69.6289 171.42 69.6289L162.273 69.6003L163.497 63.9282L169.694 63.9477H169.724C170.492 63.9422 170.916 63.6981 171.025 63.1947C171.081 62.9344 171.041 62.7469 170.903 62.6234C170.743 62.4889 170.471 62.4184 170.101 62.4184L163.826 62.3966L164.668 58.5181L173.738 58.5431C174.079 58.5363 174.35 58.4788 174.556 58.3419C174.755 58.2107 174.877 58.0319 174.931 57.7937C174.985 57.5263 174.955 57.3355 174.831 57.2166C174.7 57.0853 174.467 57.0187 174.143 57.0187L164.183 56.9852H164.175Z" fill="white"/>
<path d="M175.186 70.4263L177.915 57.7943C178.072 57.0654 178.478 56.6992 179.133 56.6992C179.786 56.706 180.031 57.093 179.864 57.8713L177.641 68.1544L188.151 57.2909C188.526 56.9201 188.905 56.7313 189.28 56.7346C189.904 56.7395 190.135 57.1031 189.973 57.8343L187.248 70.4692C187.093 71.1841 186.689 71.539 186.033 71.539C185.38 71.539 185.126 71.1981 185.27 70.528L187.519 60.1091L177.121 70.8826C176.881 71.1347 176.681 71.3076 176.523 71.3859C176.365 71.4652 176.159 71.5055 175.91 71.5055C175.273 71.5055 175.028 71.1416 175.186 70.4263ZM182.617 57.2506C181.697 57.2506 181.1 57.0225 180.819 56.5747C180.542 56.1246 180.521 55.3551 180.758 54.2703L180.963 53.3065L182.928 53.3133L182.643 54.633C182.574 54.9593 182.568 55.1673 182.631 55.2472C182.69 55.3301 182.88 55.3723 183.213 55.3759L185.594 55.3791C185.903 55.3791 186.109 55.346 186.207 55.2595C186.299 55.178 186.386 54.9729 186.456 54.6457L186.74 53.3282L188.705 53.3318L188.497 54.2957C188.258 55.398 187.904 56.1669 187.438 56.6069C186.966 57.0469 186.273 57.2636 185.349 57.2601L182.617 57.2506Z" fill="white"/>
<path d="M186.051 71.7141H186.039C185.661 71.7141 185.388 71.6105 185.225 71.4057C185.057 71.1984 185.014 70.8887 185.098 70.491L187.22 60.6736L177.251 71.0034C176.993 71.2731 176.781 71.4496 176.602 71.5416C176.424 71.63 176.202 71.681 175.937 71.681H175.909C175.56 71.681 175.299 71.5783 175.141 71.384C174.964 71.1594 174.92 70.8263 175.014 70.3899L177.745 57.7599C177.962 56.7489 178.607 56.5298 179.116 56.5276H179.133C179.484 56.5276 179.745 56.6293 179.906 56.8353C180.096 57.0725 180.139 57.4225 180.035 57.9048L177.942 67.5938L188.025 57.1713C188.433 56.7684 188.851 56.5646 189.267 56.561H189.28C189.617 56.561 189.865 56.6601 190.024 56.8548C190.203 57.0794 190.245 57.4193 190.148 57.8739L187.417 70.5085C187.25 71.2904 186.775 71.706 186.051 71.7141ZM187.819 59.5449L185.441 70.5683C185.377 70.8517 185.399 71.06 185.498 71.189C185.591 71.3043 185.773 71.3629 186.034 71.3629H186.051C186.609 71.3629 186.938 71.06 187.076 70.4289L189.805 57.7992C189.88 57.4547 189.86 57.2107 189.748 57.0748C189.666 56.963 189.503 56.9114 189.28 56.9114H189.27C188.949 56.9136 188.612 57.0816 188.277 57.4157L177.342 68.7156L179.694 57.8314C179.771 57.4615 179.752 57.2002 179.632 57.054C179.54 56.9367 179.372 56.8779 179.132 56.8779C178.571 56.887 178.226 57.1817 178.086 57.8314L175.355 70.4692C175.283 70.7916 175.304 71.0291 175.412 71.1627C175.504 71.2732 175.672 71.3274 175.909 71.3274C176.145 71.3239 176.311 71.2975 176.443 71.2283C176.538 71.1789 176.714 71.06 176.995 70.763L187.819 59.5449ZM185.408 57.4365H185.353L182.619 57.4225C181.636 57.4225 180.983 57.1681 180.676 56.667C180.365 56.174 180.34 55.3749 180.588 54.23L180.824 53.1303L183.147 53.1371L182.813 54.6691C182.735 55.0457 182.768 55.1412 182.773 55.1468C182.773 55.1468 182.862 55.1965 183.212 55.1965L185.594 55.2079H185.616C185.976 55.2033 186.072 55.1445 186.091 55.1321C186.105 55.1113 186.195 55.0223 186.283 54.6092L186.598 53.1511L188.919 53.1615L188.666 54.3282C188.426 55.4613 188.051 56.2734 187.552 56.7349C187.065 57.1947 186.344 57.4329 185.408 57.4365ZM181.108 53.4839L180.932 54.3061C180.704 55.3463 180.718 56.0752 180.969 56.4795C181.21 56.8743 181.767 57.0725 182.619 57.0748L185.353 57.0816C186.21 57.0725 186.882 56.8847 187.317 56.4795C187.757 56.0684 188.097 55.3209 188.324 54.2567L188.488 53.5069L186.882 53.5011L186.625 54.6853C186.548 55.0584 186.448 55.2852 186.319 55.3924C186.192 55.5039 185.955 55.5513 185.593 55.5582L183.212 55.5478C182.801 55.5478 182.584 55.4912 182.486 55.3486C182.391 55.2241 182.389 54.996 182.472 54.5966L182.714 53.4874L181.108 53.4839Z" fill="white"/>
</svg>
